<?xml version="1.0" encoding="utf-8"?>
<!-- Generator: Adobe Illustrator 19.2.1, SVG Export Plug-In . SVG Version: 6.00 Build 0)  -->
<svg version="1.1" id="layer" xmlns="http://www.w3.org/2000/svg" xmlns:xlink="http://www.w3.org/1999/xlink" x="0px" y="0px"
	 viewBox="0 0 652 652" style="enable-background:new 0 0 652 652;" xml:space="preserve">
<style type="text/css">
	.st0{fill:#002E6D;}
	.st1{fill:#717271;}
</style>
<g>
	<path class="st0" d="M85.3,278.8v-8c0,0,1.7-12.3-18.8-12.3c-21,0-19.8,12.3-19.8,12.3v40.3c0,0-1.2,11.5,19.8,11.5
		c17.9,0,18.8-5.2,18.8-5.2v-17.9H66.5v-10.8h40v28.7c0,0-8,16-40,16c-37.7,0-41-22.4-41-22.4v-40.3c0,0,1.9-22.6,41-22.6
		c42.2,0,40,22.6,40,22.6v8H85.3z M488.6,289.7c0,0,1.4-16.1-31.1-16.1c-32.3,0-31,16-31,16v27.9c0,0-1.4,16,31,16
		c32.4,0,31.1-16,31.1-16V313h-17.1l0,4.5c0,0,0,6.9-14,6.9c-13.9,0-13.9-6.9-13.9-6.9c-0.1,0,0-10.1,0-10.1h45V289.7z M457.6,282.8
		c14.1,0,14.1,7.1,14.1,7.1c0,0,0,6.2,0,6.2h-27.9l0-6.2C443.7,289.9,443.7,282.8,457.6,282.8 M556.7,297.2v-7.5
		c0,0,1.4-16.1-31.1-16.1c-32.3,0-31,16-31,16v27.9c0,0-1.4,16,31,16c32.4,0,31.1-16,31.1-16v-6.9h-17.1l0,7c0,0,0,6.9-14,6.9
		c-13.9,0-13.9-6.9-13.9-6.9c-0.1,0,0-27.5,0-27.5c0.1,0,0.2-7.1,14.6-7.1c13.5,0,13.3,6.9,13.3,6.9v7.3L556.7,297.2z M382,284.8
		h5.4v33.4c0,14.8,20.2,16.4,34.9,14.4c0.1,0,0-8.3,0-8.3c-17,2.4-17.9-6.1-17.9-6.1v-33.4h18.7v-9.2h-18.7v-13.1h-17.1v13.1H382
		V284.8z M310.3,289.7c0,0,1.4-16.1-31.1-16.1c-32.2,0-31,16-31,16v27.9c0,0-1.4,16,31,16c32.4,0,31.1-16,31.1-16V313h-17.1l0,4.5
		c0,0,0,6.9-14.1,6.9c-13.9,0-13.8-6.9-13.9-6.9c-0.1,0,0-10.1,0-10.1h45V289.7z M279.2,282.8c14.1,0,14.1,7.1,14.1,7.1
		c0,0,0,6.2,0,6.2h-27.9l0-6.2C265.3,289.9,265.3,282.8,279.2,282.8 M174.7,289.7c0,0,1.4-16.1-31.1-16.1c-32.3,0-31,16-31,16v27.9
		c0,0-1.4,16,31,16s31.1-16,31.1-16V313h-17.1l0,4.5c0,0,0,6.9-14,6.9c-13.9,0-13.9-6.9-13.9-6.9c-0.1,0,0-10.1,0-10.1h45V289.7z
		 M143.6,282.8c14.1,0,14.1,7.1,14.1,7.1c0,0,0,6.2,0,6.2h-27.9l0-6.2C129.7,289.9,129.7,282.8,143.6,282.8 M563.4,331h17.1v-42.1
		c0,0,0-7,13.9-7c14,0,14,6.9,14,6.9V331h17.1v-44c0,0-0.7-14.4-31.1-14.4c-5.6,0-10.1,0.5-13.9,1.3c-0.1,0,0-25.1,0-25
		c0,0.2-17.1,0-17.1,0V331z M211.4,272.6c-10.4,0-17.3,1.7-21.9,3.9l-9.1,0.1V331h17.1v-42.1c0,0,0-7,13.9-7c14,0,14,6.9,14,6.9V331
		h17.1v-44C242.5,287,241.8,272.6,211.4,272.6 M347,272.6c-10.4,0-17.3,1.7-21.9,3.9l-9.1,0.1V331h17.1v-42.1c0,0,0-7,13.9-7
		c14,0,14,6.9,14,6.9V331h17.1v-44C378.1,287,377.4,272.6,347,272.6"/>
	<path class="st1" d="M51.7,360.9l1.5,8.6c1,5.8,1.9,11.6,2.9,17.3c0.6,3.8,1.3,4,4.2,4.4l-0.2,1.3H47.8l0.3-1.3l1.6-0.2
		c1.6-0.2,1.9-0.7,1.6-2.6l-1.2-6.8h-9c-0.8,1.3-2.1,4.1-3.2,6.2c-1.2,2.5-1.1,3,0.7,3.2l1.6,0.2l-0.3,1.3H29.4l0.3-1.3
		c2.8-0.3,3.6-0.7,6-4.9l14.1-24.8L51.7,360.9z M42.2,379.4h7.7L48,368.5h-0.1L42.2,379.4z M90.6,361.5l6.1,23l14.2-23h8.9l-0.3,1.3
		c-3.8,0.3-4.2,0.6-5,5.8l-2.6,16.8c-0.8,5.2-0.7,5.5,3.2,5.8l-0.3,1.3h-13.1l0.2-1.3c3.6-0.3,4-0.6,4.9-5.8L110,367h-0.2L94.6,392
		h-1.4l-5.8-24.2h-0.1l-2.8,12.3c-1,4.5-1.4,7.2-1.6,8.6c-0.2,1.7,0.8,2.2,3.9,2.4l-0.2,1.3H75.2l0.2-1.4c2.4-0.1,3.6-0.7,4.3-2.4
		c0.5-1.5,1.4-4.2,2.5-8.9l2.6-10.5c1.4-5.7,1-6.2-3.1-6.6l0.3-1.3H90.6z M135.3,387.6c-4.7,4.8-8.9,5.5-10.9,5.5
		c-2.2,0-5.5-1.4-5.5-7c0-4.4,2.2-9.4,5.6-11.9c2.1-1.5,4.9-3,7.6-3c3,0,4.6,1.7,4.6,3.8c0,4.4-8.2,7.4-12.7,8.8
		c0,0.3-0.1,0.7-0.1,1c0,2.2,0.7,5.1,3.5,5.1c1.9,0,4.3-1,7.1-3.4L135.3,387.6z M128.5,373.9c-1.3,0.8-3.4,3-4.2,8.4
		c5.7-2,7.8-4,7.8-6.7c0-1.8-1.3-2.2-2-2.2C129.5,373.4,128.9,373.6,128.5,373.9 M139.6,376.1c2.8-2.6,6.2-4.9,7.9-4.9
		c1.5,0,1.5,1.7,1,4.4l-0.8,3.5h0.1c3.2-3.9,6.5-6.2,8.5-7.1c1-0.5,1.8-0.7,2.6-0.7c0.9,0,2.6,0.6,1.5,5.4l-0.6,2.4l0.1,0
		c3.3-4,6.6-6.2,8.5-7.1c1-0.5,1.8-0.7,2.5-0.7c1,0,2.9,0.6,1.7,6c-0.6,2.5-1.7,6.5-2.5,10.4c-0.3,1.2-0.4,1.7,0,1.7
		c0.4,0,2.1-1,3.4-2l0.6,1.2c-2.7,2.5-6.8,4.5-7.7,4.5c-1.4,0-2-1.1-1.3-4l2.7-11.2c0.5-2,0.7-3.2-0.5-3.2c-1.7,0-6.4,4.7-8.2,8
		c-0.4,1.5-1.6,6.3-1.9,9l-5.1,1.3c0.6-2.6,1.2-5.2,1.8-7.9l1.8-7.9c0.3-1.3,0.4-2.6-0.6-2.6c-1.7,0-6.4,4.7-8.3,8
		c-0.4,1.3-1.5,6.3-1.8,9l-5.2,1.3c0.7-2.6,1.3-5.2,1.9-7.8l1.7-7.8c0.4-1.7,0.5-2.4,0.1-2.4c-0.5,0-2.3,1.1-3.4,2.2L139.6,376.1z
		 M179.7,360.7c3.9-0.8,8.2-2,8.6-2c0.6,0,0.7,0.8,0.3,2.2l-3.7,16.6h0.1c4.1-4.3,8.1-6.3,10.2-6.3c1.9,0,3.2,1.6,3.2,4.4
		c0,5.7-3,12-7.1,14.9c-2.9,2-5.6,2.6-7.5,2.6c-2.5,0-4.6-0.9-5.2-2.7c-0.3-1-0.2-2,0.4-5l4.4-21.5c0.4-1.9,0.3-2.1-1.3-2.1h-2.2
		V360.7z M186.1,378.6c-1.8,2.1-2,2.8-2.6,6.9c-0.7,4.3,0.4,5.4,2.3,5.4c1,0,1.7-0.2,2.4-0.6c2.3-1.3,5.2-7.4,5.2-12.7
		c0-2.4-0.6-3.2-1.6-3.2C190.4,374.5,187.8,376.6,186.1,378.6 M218.2,387.6c-4.7,4.8-8.9,5.5-10.9,5.5c-2.2,0-5.5-1.4-5.5-7
		c0-4.4,2.2-9.4,5.6-11.9c2.1-1.5,4.9-3,7.6-3c3,0,4.6,1.7,4.6,3.8c0,4.4-8.2,7.4-12.7,8.8c0,0.3-0.1,0.7-0.1,1
		c0,2.2,0.7,5.1,3.5,5.1c1.9,0,4.3-1,7.1-3.4L218.2,387.6z M211.3,373.9c-1.3,0.8-3.4,3-4.2,8.4c5.7-2,7.8-4,7.8-6.7
		c0-1.8-1.3-2.2-2-2.2C212.4,373.4,211.8,373.6,211.3,373.9 M222.1,376.1c2.8-2.6,6.1-4.9,7.7-4.9c1.2,0,1.3,1.7,0.9,3.4l-0.9,3.6
		h0.1c2.3-4.1,5-7,6.4-7c1,0,2.1,0.5,2.6,1.3c0.4,0.6,0.2,1.6-0.1,2.2c-0.5,0.9-1,1.2-1.4,1.6c-0.5,0.3-1,0.4-1.4,0
		c-0.5-0.4-1.1-0.6-1.5-0.6c-0.5,0-1.2,0.2-2.2,1.6c-1.1,1.5-2,3.1-2.6,5c-1,4.5-1.6,7.8-1.7,9.4h0l-5.1,1.4
		c0.6-2.6,1.2-5.1,1.7-7.7l1.6-7.7c0.4-2,0.4-2.6,0.1-2.6c-0.4,0-2.3,1.2-3.4,2.2L222.1,376.1z M268.8,378.1c0,4.3-1.9,8.9-5.1,11.7
		c-2,1.9-5.3,3.2-7.7,3.2c-5.1,0-6.7-4-6.7-7.4c0-6.4,3.4-10.6,6.8-12.6c2.1-1.2,4.4-1.8,6-1.8C266.4,371.2,268.8,374.2,268.8,378.1
		 M259.1,373.6c-1.5,0.6-4.6,4.3-4.6,11.5c0,3.7,1.2,6,3.4,6c0.5,0,0.8-0.1,1.1-0.2c1.8-0.6,4.7-6,4.6-12.3c0-3.5-1.2-5.3-3.2-5.3
		C260,373.3,259.5,373.4,259.1,373.6 M287.2,372.4l-1.1,1.5l-4.8,0.5c-0.7,4.2-1.1,7.1-1.8,10.5c-1.8,9.3-4.1,13.9-6.1,16.1
		c-2.2,2.4-4.5,3.1-5.5,3.1c-0.9,0-2.1-0.4-2.1-1.5c0-0.8,0.5-1.7,0.9-2.1c0.3-0.3,0.9-0.6,1.4-0.3c0.6,0.3,1.7,0.8,2.2,0.8
		c0.4,0,0.8-0.2,1.2-0.6c0.7-0.7,1.6-3.9,2.8-12.3c0.9-5.9,1.4-9.6,2-13.8h-3.8l-0.1-0.5l1.4-1.5h2.9c0.7-4,1.9-7.3,4-9.7
		c2-2.2,5-4.1,8-4.1c1.8,0,3.1,1,3.1,2.1c0,1-0.8,1.8-1.2,2.2c-0.5,0.4-1.2,0.5-1.7,0c-1.1-1.1-2.3-1.7-3.5-1.7
		c-1.3,0-2.4,2-3.8,11.2H287.2z M311.8,366l-1.6,6.4h5.9l-1.5,1.7l-4.8,0.2l-2.7,12.5c-0.4,1.8-0.2,2.6,0.3,2.6c0.8,0,3.1-1.9,4.3-3
		l0.1,0.1l0.7,0.9c-1.5,1.9-6.1,5.7-8.5,5.7c-1.5,0-2.5-1.7-1.6-6.1l2.7-12.6h-3.6l-0.4-0.6l1.4-1.3h3l0.9-3.5l4.8-3.3L311.8,366z
		 M315.9,393.1c0.5-2.4,1-4.8,1.5-7.2l4.4-22c0.4-1.9,0.3-2.1-1.3-2.1h-2.3v-1.1c3.9-0.8,8.3-2,8.7-2c0.6,0,0.7,0.8,0.4,2.2l-3.8,18
		h0.1c3.3-3.7,6.5-6,8.5-6.9c1-0.5,1.9-0.7,2.6-0.7c1.1,0,2.8,0.6,1.9,5c-0.8,3.5-1.7,7.5-2.5,11.5c-0.3,1.2-0.4,1.7,0,1.7
		c0.4,0,2.1-1,3.3-2l0.6,1.2c-2.6,2.5-6.7,4.5-7.8,4.5c-1.3,0-1.9-1.1-1.2-4l2.6-11.2c0.5-2,0.6-3.2-0.5-3.2c-1.8,0-6.3,4.5-8.2,7.8
		c-0.3,1.4-1.5,6.6-1.8,9.3L315.9,393.1z M357.7,387.6c-4.7,4.8-8.9,5.5-10.9,5.5c-2.2,0-5.5-1.4-5.5-7c0-4.4,2.1-9.4,5.6-11.9
		c2-1.5,4.9-3,7.6-3c3,0,4.6,1.7,4.6,3.8c0,4.4-8.1,7.4-12.7,8.8c0,0.3-0.1,0.7-0.1,1c0,2.2,0.7,5.1,3.5,5.1c1.9,0,4.4-1,7.1-3.4
		L357.7,387.6z M350.9,373.9c-1.4,0.8-3.4,3-4.2,8.4c5.7-2,7.8-4,7.8-6.7c0-1.8-1.3-2.2-2-2.2C351.9,373.4,351.4,373.6,350.9,373.9
		 M389.4,361.5c5.1,0,10.3,1.3,10.3,7.6c0,4.4-3.8,7.4-8.1,8.6c0.5,1.2,1.8,4.4,2.9,6.5c1.3,2.6,2.3,4.3,3.1,5.3
		c0.9,1.3,1.8,2,3.3,2.3l-0.3,1.1l-1.5,0c-5.2-0.1-6.5-1.7-8-4.5c-1.3-2.5-2.5-5.3-3.4-7.6c-0.6-1.4-1-1.8-2.4-1.8h-1.9l-1.2,6.4
		c-1,5.2-0.7,5.5,3.1,5.8l-0.2,1.3h-13.2l0.3-1.3c3.7-0.3,4.1-0.6,5.1-5.8l3.2-16.8c1-5.2,0.7-5.5-3-5.8l0.2-1.3H389.4z
		 M383.6,377.4h1.9c1.8,0,3.3-0.3,4.8-1.3c2.6-1.6,4.1-4.4,4.1-7.4c0-3.6-2.1-5.4-5.4-5.4c-1.2,0-1.9,0.1-2.2,0.2
		c-0.4,0.1-0.5,0.6-0.7,1.4L383.6,377.4z M423.5,378.1c0,4.3-1.9,8.9-5.1,11.7c-2.1,1.9-5.3,3.2-7.7,3.2c-5.1,0-6.7-4-6.7-7.4
		c0-6.4,3.4-10.6,6.8-12.6c2.1-1.2,4.4-1.8,6-1.8C421,371.2,423.5,374.2,423.5,378.1 M413.7,373.6c-1.5,0.6-4.6,4.3-4.6,11.5
		c0,3.7,1.2,6,3.4,6c0.5,0,0.8-0.1,1.1-0.2c1.8-0.6,4.7-6,4.6-12.3c0-3.5-1.2-5.3-3.2-5.3C414.6,373.3,414.2,373.4,413.7,373.6
		 M442.1,388.1c-3.2,3.3-7.4,5-9.7,5c-3.6,0-5.6-2.5-5.6-6.8c0-3.8,1.7-8.6,5.1-11.6c2-1.8,5.2-3.4,8.2-3.4c2.1,0,4,1.2,4,2.5
		c0,0.7-0.5,1.4-1.3,2.1c-0.8,0.7-1.7,0.5-2.1,0c-1.2-1.6-2.3-2.2-3.3-2.2c-1,0-2.1,0.8-3.2,2.6c-1.3,2.3-2.2,5.9-2.2,8.9
		c0,3,1,4.8,3.1,4.8c2.7,0,5.1-2,6.3-2.9L442.1,388.1z M445.4,393.1c0.5-2.4,1-4.8,1.5-7.2l4.4-22c0.4-1.9,0.3-2.1-1.3-2.1h-2.3
		v-1.1c3.9-0.8,8.3-2,8.7-2c0.6,0,0.7,0.8,0.4,2.2l-3.8,18h0.1c3.3-3.7,6.5-6,8.5-6.9c1-0.5,1.9-0.7,2.6-0.7c1.1,0,2.8,0.6,1.8,5
		c-0.8,3.5-1.7,7.5-2.5,11.5c-0.3,1.2-0.4,1.7,0,1.7c0.4,0,2.1-1,3.3-2l0.6,1.2c-2.6,2.5-6.7,4.5-7.8,4.5c-1.3,0-1.9-1.1-1.2-4
		L461,378c0.5-2,0.6-3.2-0.5-3.2c-1.8,0-6.3,4.5-8.2,7.8c-0.3,1.4-1.5,6.6-1.8,9.3L445.4,393.1z M487.2,387.6
		c-4.7,4.8-8.9,5.5-10.9,5.5c-2.2,0-5.5-1.4-5.5-7c0-4.4,2.2-9.4,5.6-11.9c2.1-1.5,4.9-3,7.6-3c3,0,4.6,1.7,4.6,3.8
		c0,4.4-8.2,7.4-12.7,8.8c0,0.3-0.1,0.7-0.1,1c0,2.2,0.7,5.1,3.5,5.1c1.8,0,4.3-1,7.1-3.4L487.2,387.6z M480.4,373.9
		c-1.3,0.8-3.4,3-4.2,8.4c5.7-2,7.8-4,7.8-6.7c0-1.8-1.3-2.2-2-2.2C481.4,373.4,480.9,373.6,480.4,373.9 M531.2,369.8
		c-0.2-5.9-3.7-7.1-7.6-7.1c-8.5,0-13.9,7.8-13.9,16.7c0,7.1,3.2,11.9,9.8,11.9c2,0,4.1-0.5,4.5-2.7l1-5.1c0.6-3.3,0.4-3.4-4.7-3.7
		l0.2-1.5h13.2l-0.2,1.5c-2.4,0.2-2.8,0.3-3.4,3.7l-0.9,4.4c-0.2,1.2-0.3,2.5-0.3,3.4c-3,0.8-6.5,1.9-10.3,1.9
		c-8.6,0-14.6-4.8-14.6-13.7c0-11.2,9.4-18.8,20.9-18.8c3.8,0,7,0.8,8.5,1.2c-0.1,1.6-0.4,4.1-0.6,7.6L531.2,369.8z M535.4,376.1
		c2.8-2.6,6.1-4.9,7.7-4.9c1.2,0,1.3,1.7,0.9,3.4l-0.8,3.6h0.1c2.3-4.1,5-7,6.4-7c1.1,0,2.1,0.5,2.6,1.3c0.4,0.6,0.2,1.6-0.1,2.2
		c-0.5,0.9-1,1.2-1.4,1.6c-0.5,0.3-1,0.4-1.4,0c-0.5-0.4-1.1-0.6-1.5-0.6c-0.5,0-1.2,0.2-2.2,1.6c-1.1,1.5-2,3.1-2.6,5
		c-1,4.5-1.6,7.8-1.7,9.4h0l-5.1,1.4c0.6-2.6,1.1-5.1,1.7-7.7l1.6-7.7c0.4-2,0.4-2.6,0.1-2.6c-0.4,0-2.3,1.2-3.4,2.2L535.4,376.1z
		 M572.5,378.1c0,4.3-1.9,8.9-5.1,11.7c-2.1,1.9-5.3,3.2-7.7,3.2c-5.1,0-6.7-4-6.7-7.4c0-6.4,3.4-10.6,6.8-12.6
		c2.1-1.2,4.4-1.8,6-1.8C570,371.2,572.5,374.2,572.5,378.1 M562.7,373.6c-1.5,0.6-4.6,4.3-4.6,11.5c0,3.7,1.2,6,3.4,6
		c0.5,0,0.8-0.1,1.1-0.2c1.8-0.6,4.7-6,4.6-12.3c0-3.5-1.2-5.3-3.2-5.3C563.7,373.3,563.2,373.4,562.7,373.6 M576.2,376.1
		c2.8-2.6,6.4-4.9,8.2-4.9c1.1,0,1.6,1.2,1.1,3.6l-2.5,11c-0.4,2.3-0.5,3.7,0.5,3.7c0.9,0,2.5-1.5,4.2-3.4c1.7-1.9,3.4-4.3,4.2-6
		c0.3-1,1.2-5,1.6-7.6l4.4-1.3h0.6c-1.2,5.5-2.4,11-3.5,16.5c-0.2,1.2-0.3,1.7,0,1.7c0.4,0,2.1-1,3.3-2l0.7,1.2
		c-2.6,2.5-6.8,4.5-7.6,4.5c-1.5,0-1.9-1.5-1.3-4.1l1.1-4.8H591c-2.4,3.6-5.4,6.4-7.5,7.6c-1.2,0.7-2.4,1.2-3.6,1.2
		c-1,0-3-0.7-1.8-6.1l2.1-9.6c0.4-1.7,0.5-2.3,0.1-2.3c-0.4,0-2.2,1.1-3.4,2.2L576.2,376.1z M611.9,371.9c1.4-0.4,3-0.7,4.1-0.7
		c5.4,0,7.6,2.5,7.6,6.5c0,3-1.4,6.7-4.3,10c-2.3,2.6-5.7,4.7-9.2,5.4c-0.8,0-1.6-0.1-2.5-0.4l-1.2,6.3c-0.4,2.3-0.3,2.8,1.3,3
		l2.4,0.2v1.2l-12.5,0.6v-1.3c3.1-0.5,3.5-0.9,4-3.1l5-24.6c-1.3,0.3-2.6,0.7-3.9,1.2l-0.3-1.4c1.7-0.9,3.2-1.3,4.7-1.9l0.5-2
		c1.2-1.1,3-2.4,4.6-3.1l0.5,0.3L611.9,371.9z M608.3,389.7c0.4,0.6,1.3,1.2,2.6,1.2c3.1,0,7.3-6,7.3-12.2c0-3.9-2.3-5-4.4-5
		c-0.9,0-1.6,0.1-2.5,0.3L608.3,389.7z"/>
</g>
</svg>
