<?xml version="1.0" encoding="utf-8"?>
<!-- Generator: Adobe Illustrator 19.0.0, SVG Export Plug-In . SVG Version: 6.00 Build 0)  -->
<svg version="1.1" id="Layer_1" xmlns="http://www.w3.org/2000/svg" xmlns:xlink="http://www.w3.org/1999/xlink" x="0px" y="0px"
	 viewBox="0 0 500 500" style="enable-background:new 0 0 500 500;" xml:space="preserve">
<style type="text/css">
	.st0{fill:#231F20;}
	.st1{fill:#C5112E;}
	.st2{fill:#FFFFFF;}
</style>
<g id="XMLID_1_">
	<path id="XMLID_15_" class="st0" d="M412.4,215c-3.7,0-8.6,0.4-10.3,0.4c-1,0-4.9-0.1-6.1-0.1v1c2,0.4,3.2,1.1,3.2,3v27.1
		c0,1.9-1.1,2.8-3.2,3.1v1c1.2,0,4.8-0.2,5.8-0.2c1.7,0,6.2,0.3,9.9,0.3c12.9,0,20.8-7.6,20.8-18C432.5,221.9,424.9,215,412.4,215
		L412.4,215z M260,215c-1.9,0-6.8,0.3-8.5,0.3c-1.1,0-4.7-0.1-5.9-0.1v1c2.2,0.4,3.1,1.4,3.1,3.1v26.9c0,1.9-1.1,2.8-3.1,3.2v1
		c1.2,0,4.9-0.2,5.9-0.2c1.1,0,4.9,0.2,6.1,0.2v-1c-2.1-0.4-3.2-1.4-3.2-3.2v-12.1c0.6,0.1,1.1,0.1,1.6,0.2c2.7,0.4,4.2,1.7,5.4,3.2
		c1.9,2.4,5.4,7.4,7.3,9.7c2.2,2.7,4.5,3.7,7.4,3.7c1.3,0,3.1-0.2,4.1-0.4v-0.8c-2.2-0.1-4.4-2.4-6-4.4c-1.7-2-5.9-7.9-7.4-9.6
		c-1.2-1.4-2.4-2.1-2.4-2.1c5.3-1.3,8.8-4.5,8.8-9.1C273.1,218.5,268.4,215,260,215L260,215z M370.7,215c-1.9,0-6.8,0.3-8.5,0.3
		c-1.1,0-4.7-0.1-5.9-0.1v1c2.2,0.4,3.1,1.4,3.1,3.1v26.9c0,1.9-1.2,2.8-3.1,3.2v1c1.2,0,4.9-0.2,5.8-0.2c1.1,0,4.9,0.2,6.1,0.2v-1
		c-2.1-0.4-3.3-1.4-3.3-3.2v-12.1c0.6,0.1,1.1,0.1,1.6,0.2c2.7,0.4,4.2,1.7,5.4,3.2c1.9,2.4,5.3,7.4,7.2,9.7
		c2.2,2.7,4.5,3.7,7.3,3.7c1.3,0,3.1-0.2,4.2-0.4v-0.8c-2.3-0.1-4.4-2.4-6-4.4c-1.6-2-5.8-7.9-7.2-9.6c-1.2-1.4-2.4-2.1-2.4-2.1
		c5.3-1.3,8.8-4.5,8.8-9.1C383.8,218.5,379.1,215,370.7,215L370.7,215z M220,215.1c0,0-0.6,2.3-1.1,3.4l-11.2,27
		c-0.8,1.9-2,3.4-4.3,3.9v0.9l5.1-0.1c0.7,0,3.8,0.1,5,0.1v-0.9c-2-0.5-2.5-1.3-2.5-2.3c0-0.6,0.3-1.6,0.6-2.3l2.3-5.8h13.1l2.5,5.7
		c0.4,0.8,0.7,1.7,0.7,2.4c0,0.8-0.5,1.7-2.3,2.1l0,0.9c1.3,0,5.1-0.1,6-0.1s4.9,0.1,6.2,0.1v-0.9c-2.4-0.6-3.3-1.9-4.1-3.8
		l-11.9-27.1c-0.5-1.1-1-3.4-1-3.4H220z M331.3,215.1c0,0-0.6,2.3-1,3.4l-11.2,27c-0.8,1.9-2,3.4-4.2,3.9l0,0.9l5.2-0.1
		c0.7,0,3.7,0.1,4.8,0.1v-0.9c-2-0.5-2.5-1.3-2.5-2.3c0-0.6,0.3-1.6,0.6-2.3l2.3-5.8h13.2l2.5,5.7c0.4,0.8,0.6,1.7,0.6,2.4
		c0,0.8-0.5,1.7-2.2,2.1l0,0.9c1.3,0,5.1-0.1,6-0.1c0.9,0,4.9,0.1,6.2,0.1v-0.9c-2.4-0.6-3.3-1.9-4.1-3.8l-11.9-27.1
		c-0.5-1.1-1.1-3.4-1.1-3.4H331.3L331.3,215.1z M160.6,215.2v1c1.7,0.4,2.8,1.2,2.8,3v27.3c0,1.9-1.2,2.6-2.8,3v0.9
		c0.8,0,4.6-0.1,5.5-0.1c1.1,0,5,0.1,5.9,0.1v-0.9c-1.7-0.4-2.9-1.1-2.9-3v-12.9h20.3v12.9c0,1.9-1.1,2.6-2.8,3v0.9
		c0.9,0,4.7-0.1,5.8-0.1c0.9,0,4.7,0.1,5.6,0.1v-0.9c-1.7-0.4-2.9-1.2-2.9-3v-27.3c0-1.9,1.2-2.6,2.9-3v-1c-0.9,0-4.7,0.1-5.6,0.1
		c-1.1,0-4.9-0.1-5.8-0.1v1c1.7,0.4,2.8,1.1,2.8,3v11.4H169v-11.4c0-1.9,1.2-2.6,2.9-3v-1c-0.9,0-4.8,0.1-5.9,0.1
		C165.2,215.3,161.4,215.2,160.6,215.2z M279,215.3v1c2,0.4,3.2,1.7,4,3.4l13.8,30.9h2.7l12.6-29.7c1.2-2.8,2.5-4,4.6-4.5v-1
		c-1.2,0-4.5,0.2-5.3,0.2c-0.9,0-3.6-0.2-4.8-0.2v1c1.4,0.3,2.4,1,2.4,2.1c0,1-0.5,2.3-1.2,3.9l-8.6,20.6l-9.1-20.6
		c-1-2.1-1.5-3.3-1.5-4.1c0-1.2,1.3-1.8,2.4-2v-1c-1.3,0-5,0.2-5.9,0.2C284.4,215.4,280.3,215.3,279,215.3L279,215.3z M258.3,217.3
		c5.8,0,8.9,2.9,8.9,7.7c0,3.3-2.1,7.1-8.7,7.1c-1.6,0-3.3-0.1-4.4-0.2v-14.2C255.4,217.4,257.2,217.3,258.3,217.3z M369.1,217.3
		c5.8,0,8.9,2.9,8.9,7.7c0,3.3-2.1,7.1-8.7,7.1c-1.6,0-3.3-0.1-4.4-0.2v-14.2C366.2,217.4,367.9,217.3,369.1,217.3L369.1,217.3z
		 M410.8,217.3c9.8,0,15.6,6.4,15.6,15.6c0,8.8-5.5,15.1-16,15.1c-1.8,0-4.2-0.1-5.5-0.4v-30C406.2,217.4,408.8,217.3,410.8,217.3z
		 M220.3,223.2l5.6,13H215L220.3,223.2z M331.6,223.2l5.6,13h-10.8L331.6,223.2z"/>
	<path id="XMLID_16_" class="st1" d="M105.6,204.4l-37.8,0l-0.1,30.2c0,37,37.1,60.6,37.5,60.9l0.1,0.1l0.3-0.2
		c6.3-4.1,37.8-26.5,37.8-60.6v-30.3L105.6,204.4"/>
	<path id="XMLID_17_" d="M68.2,234.6h0.7v-29.4l74.7,0v-0.7l-0.7,0c0,0,0,4.5,0,30.3c0,18.8-9.4,33.8-18.8,44.1
		c-4.7,5.1-9.4,9.1-13,11.8c-1.8,1.3-3.2,2.4-4.3,3c-0.5,0.3-0.9,0.6-1.2,0.8c-0.3,0.2-0.4,0.3-0.4,0.3l0.3,0.6l0.4-0.6
		c0,0-0.1-0.1-0.4-0.3c-2-1.3-11.2-7.7-19.9-18c-8.7-10.3-16.8-24.6-16.8-41.9V234h-0.7h0L68.2,234.6l0.6-0.4l0,0L68.2,234.6h0.7
		H68.2l-0.6,0.4l0,0l0.2,0.3h0.4h0L68.2,234.6l-0.7,0c0,18.9,9.4,34.2,18.8,44.8c9.4,10.6,18.8,16.5,18.8,16.5l0.3,0.2l0.4-0.2
		c0,0,9.6-5.6,19.2-16.1c9.6-10.4,19.2-25.7,19.2-45c0-12.9,0-20.5,0-24.8c0-4.3,0-5.5,0-5.5l0-0.7l-76.7,0v31l0.1,0.2L68.2,234.6z"
		/>
	<path id="XMLID_35_" class="st1" d="M315.8,266.3c-3.7,0-6.1,1.9-6.1,5c0,3.5,3.5,4.8,5.2,5.6c2.3,1.1,4.3,2,4.3,4
		c0,1.9-1.5,3-3.9,3c-1.1,0-2.4-0.3-3.3-0.9c-0.8-0.5-1.4-1.5-1.7-2.5h-0.5l0,3.8c1.3,0.2,2.9,0.9,5.4,0.9c4.2,0,6.6-2.1,6.6-5.1
		c0-3.2-2.7-4.4-5.3-5.5c-2.1-0.9-4.3-2.1-4.3-4.1c0-1.5,1-2.9,3.4-2.9c2.1,0,4.1,0.8,4.8,2.9h0.5l0-3.7
		C319.4,266.9,318.2,266.3,315.8,266.3z M251.5,266.3c-5.7,0-9.6,4-9.6,9.5c0,5.2,3.1,9.4,9.7,9.4c3.2,0,5.1-1.1,6.4-0.9l0.2-4h-0.5
		c-0.9,2.6-3,3.6-5.8,3.6c-5.1,0-6.9-4.5-6.9-8.1c0-4.4,2.3-8.1,6.5-8.1c2.5,0,4.9,1.2,5.9,3.6h0.5l-0.2-4
		C256,267.3,254.3,266.3,251.5,266.3z M336.2,266.3c-5.7,0-9.6,4-9.6,9.5c0,5.2,3.1,9.4,9.8,9.4c3.2,0,5.1-1.1,6.4-0.9l0.2-4h-0.5
		c-0.9,2.6-3,3.6-5.8,3.6c-5,0-6.9-4.5-6.9-8.1c0-4.4,2.3-8.1,6.5-8.1c2.5,0,4.9,1.2,5.9,3.6h0.5l-0.2-4
		C340.7,267.3,339,266.3,336.2,266.3z M381.2,266.3c-5.7,0-9.3,4.3-9.3,9.5c0,5.3,3.6,9.4,9.3,9.4c5.7,0,9.3-4.2,9.3-9.4
		C390.5,270.6,386.9,266.3,381.2,266.3z M404,266.3c-5.7,0-9.3,4.3-9.3,9.5c0,5.3,3.6,9.4,9.3,9.4c5.7,0,9.3-4.2,9.3-9.4
		C413.3,270.6,409.7,266.3,404,266.3z M201.7,266.5c-0.4,0.1-1,0.2-1.3,0.2H189v0.5c1.1,0.2,1.6,0.7,1.6,1.6v13.9
		c0,1-0.6,1.5-1.6,1.7v0.5c0.6,0,2.6-0.1,3.1-0.1h5.8c2,0,3,0,4.7,0.2l0.5-3.8l-0.5-0.1c-0.6,1.4-1.2,2.3-3.6,2.3h-5.5V276h3.9
		c0.5,0,1.2,0.1,1.5,0.1c0.8,0.2,1.2,0.8,1.4,1.5h0.5c0-0.6-0.1-1.9-0.1-2.3c0-0.4,0-1.6,0.1-2.2h-0.5c-0.2,0.7-0.5,1.2-1.4,1.4
		c-0.3,0.1-1,0.1-1.5,0.1h-3.9v-6.5h4.8c2.2,0,2.9,0.9,3.3,2.1h0.5l0.1-3.7H201.7z M216.3,266.5c-1.9,0-4.3,0.2-5.2,0.2
		c-0.5,0-2.5-0.1-3.1-0.1v0.5c1,0.2,1.6,0.6,1.6,1.6v14c0,1-0.6,1.4-1.7,1.6v0.5c0.6,0,2.5-0.1,3-0.1c0.9,0,3.1,0.2,5,0.2
		c6.6,0,10.7-4,10.7-9.3C226.6,270.1,222.8,266.5,216.3,266.5z M269.2,266.6c0,0-0.3,1.2-0.5,1.8l-5.8,14c-0.4,1-1.1,1.7-2.2,2
		l0,0.5l2.7-0.1c0.4,0,1.9,0.1,2.5,0.1l0-0.5c-1-0.3-1.3-0.7-1.3-1.2c0-0.3,0.2-0.8,0.3-1.2l1.2-3h6.8l1.3,3
		c0.2,0.4,0.3,0.9,0.3,1.2c0,0.4-0.3,0.9-1.2,1.1l0,0.5c0.7,0,2.6-0.1,3.1-0.1c0.5,0,2.5,0.1,3.2,0.1l0-0.5c-1.2-0.3-1.7-1-2.1-2
		l-6.1-14c-0.2-0.6-0.5-1.8-0.5-1.8H269.2z M348.1,266.7v0.5c0.9,0.2,1.5,0.6,1.5,1.6v14c0,1-0.6,1.4-1.5,1.6v0.5
		c0.4,0,2.4-0.1,2.9-0.1c0.5,0,2.6,0.1,3,0.1v-0.5c-0.9-0.2-1.5-0.6-1.5-1.6v-6.6h10.4v6.6c0,1-0.6,1.4-1.4,1.6v0.5
		c0.5,0,2.4-0.1,3-0.1c0.5,0,2.5,0.1,2.9,0.1v-0.5c-0.9-0.2-1.5-0.6-1.5-1.6v-14c0-1,0.6-1.4,1.5-1.6v-0.5c-0.4,0-2.5,0.1-2.9,0.1
		c-0.6,0-2.5-0.1-3-0.1v0.5c0.9,0.2,1.4,0.6,1.4,1.6v5.9h-10.4v-5.9c0-1,0.6-1.4,1.5-1.6v-0.5c-0.4,0-2.5,0.1-3,0.1
		C350.5,266.7,348.5,266.7,348.1,266.7z M230.9,266.7v0.5c1.1,0.2,1.6,0.7,1.6,1.7v13.8c0,1-0.5,1.5-1.6,1.7v0.5
		c0.6,0,2.7-0.1,3.2-0.1c0.6,0,2.5,0.1,3.1,0.1v-0.5c-1.1-0.2-1.6-0.7-1.6-1.7v-13.8c0-1,0.6-1.4,1.6-1.7v-0.5
		c-0.6,0-2.6,0.1-3.1,0.1C233.5,266.7,231.5,266.7,230.9,266.7z M283,266.7v0.5c1.1,0.2,1.6,0.7,1.6,1.7v13.8c0,1-0.5,1.5-1.6,1.7
		v0.5c0.6,0,2.7-0.1,3.2-0.1h5.8c2,0,3,0,4.7,0.2l0.5-3.8l-0.5-0.1c-0.6,1.4-1.3,2.3-3.6,2.3h-5.5v-14.5c0-1,0.6-1.4,1.6-1.7v-0.5
		c-0.6,0-2.6,0.1-3.1,0.1C285.6,266.7,283.6,266.7,283,266.7z M417.5,266.7v0.5c1.1,0.2,1.6,0.7,1.6,1.7v13.8c0,1-0.5,1.5-1.6,1.7
		v0.5c0.6,0,2.7-0.1,3.2-0.1h5.8c2,0,3,0,4.7,0.2l0.5-3.8l-0.5-0.1c-0.6,1.4-1.3,2.3-3.6,2.3h-5.5v-14.5c0-1,0.6-1.4,1.6-1.7v-0.5
		c-0.6,0-2.6,0.1-3.1,0.1C420.2,266.7,418.1,266.7,417.5,266.7z M162,266.7v0.5c1.1,0.2,1.6,0.7,1.5,1.6l-1,13.5
		c-0.1,1.1-0.7,1.8-1.8,2.1v0.5l2.6,0c0.4,0,1.9,0,2.5,0v-0.5c-1.2-0.3-1.5-1-1.5-1.8l0.8-12l6.2,14.3h1.1l6.2-14.4l0.8,12
		c0,0.8-0.3,1.5-1.5,1.8v0.5c0.6,0,2.7,0,3.1,0l3.1,0v-0.5c-1.2-0.3-1.7-0.9-1.8-2.1l-1-13.5c-0.1-0.9,0.4-1.4,1.4-1.6v-0.5
		c-0.7,0-1.9,0-2.4,0c-0.4,0-1.3,0-1.9,0l-6,13.9l-6-13.9c-0.6,0-1.5,0-2,0C164.1,266.7,162.7,266.7,162,266.7z M381.2,267.7
		c4.3,0,6.1,4,6.1,8.2c0,4.2-1.9,8.1-6.1,8.1c-4.2,0-6.2-3.8-6.2-8.1C375,271.6,376.9,267.7,381.2,267.7z M404,267.7
		c4.2,0,6.1,4,6.1,8.2c0,4.2-1.9,8.1-6.1,8.1s-6.1-3.8-6.1-8.1C397.8,271.6,399.7,267.7,404,267.7z M215.4,267.7
		c5.1,0,8.1,3.3,8.1,8c0,4.8-2.8,7.8-8.2,7.8c-1,0-2.1-0.1-2.7-0.2v-15.5C213.2,267.8,214.4,267.7,215.4,267.7z M269.3,270.8
		l2.9,6.7h-5.6L269.3,270.8z"/>
	<path id="XMLID_36_" d="M120.8,278.6L120.8,278.6L120.8,278.6L120.8,278.6L120.8,278.6L120.8,278.6L120.8,278.6
		c-0.2-0.2-0.5-0.6-0.7-0.8c-0.3-1.3,1.8-2.2,0.7-3.6c-0.2-0.8-0.1-1.9-0.9-2.6c-0.6-0.5-1.4-0.6-2.1-1c0-0.3,0.4-0.2,0.7-0.3
		c1.1-0.3,2.1,1,2.9,0.1c0.1-0.7-0.6-1.4-1.1-1.9c-1.6-1.1-4.1-0.7-5.3-2.4l0.2-0.1c1.6,0.3,3.3,0.1,4.5-1c0.7-0.9,1.4-1.8,2.5-2.1
		c1.1-0.8,1.2-2.2,1.2-3.6c0.1-0.5,0.3-1,0.7-1.4c0.6-0.6,2.1-0.3,1.8-1.5c-0.8-0.4-1.7-0.8-2.7-0.7c-0.5-0.2,0.1-0.6,0.2-0.8
		c1.6-1,4.1-1.7,3.9-4c-0.2-0.3-0.1-0.6-0.5-0.7c-0.7,0.1-1.1,0.7-1.7,1c-1.5,0.8-3.4,0.7-4.8,1.6c-0.3,0-0.2-0.4-0.1-0.5
		c0.5-0.7,1.6-0.8,2-1.7c0.3-0.7,0.4-1.7,1.3-2c0.5-0.4,1.3-0.4,1.6-1c0-0.3-0.4-0.5-0.7-0.6c-1.4-0.4-2.8,0.4-3.8,1.4
		c-1,0.4-2.2,0.8-3,1.7c-0.1,0-0.4,0-0.4-0.3c-0.2-2,1.6-3.4,2.9-4.6c0.9-0.3,1.7-1.4,2.8-0.9c0.7,0.4,1.5,0.8,2.4,0.5
		c1.1-0.4,1.3-1.6,2.3-2.2c0.7-0.2,1.8,0.8,2.2-0.2c0.2-1.1-0.6-1.7-1.1-2.5c0.6-1.5,0.1-3.3-1.1-4.4c-0.6-0.3-1.3-0.6-2-0.4
		c-0.5,0.7,0.5,1.1,0.6,1.8c0.2,2.8-2.8,3.5-4.6,4.6c-3.5,1.7-7.6,4.4-7.9,8.8c0,2.5,1.1,4.6,2.8,6.4c0.9,1.5,2.3,2.9,1.8,4.9
		c-0.3,0.8-1.3,0.9-2,0.9c-3-0.2-4.6-3.5-5.8-5.8c-0.4-0.9-0.9-1.7-1-2.8c0.2-0.1,0.3-0.1,0.4,0c0.5,0.5,0.5,1.7,1.4,1.5
		c0.7-1,0.2-2.3-0.2-3.3c-0.5-0.9-1.7-1.4-2.1-2.4c0-0.7,1-0.3,1.1-1c-0.4-1.3-0.4-2.6-0.3-3.8c0.2-0.5,1-0.5,1-1.2
		c-0.3-1.2-0.3-2.5-0.3-3.8c0.1-0.8,0.8-1.6,0.3-2.5c-0.9-0.3-0.2-1.3-1-1.6c-1.7,0-2.9-0.9-4.3-1.4c-0.7-0.2-1.3,0.2-1.9,0.4
		c-0.9,0.2-1.9,0.2-2.6,0.9c-0.4,0.5-0.3,1.1-0.3,1.9c-0.1,0.4-0.5,0.1-0.7,0c-0.7-0.4-0.9-1.1-0.7-1.9c0.1-0.3-0.1-0.7-0.3-0.9
		c-0.4-0.3-1.1-0.4-1.6-0.2c-0.7,0.2-0.9,1-1.2,1.6c-0.1,0.5,0.1,1.1,0.3,1.5c1,1,2.4,1.4,3.5,2.3c0.2,0.6-0.2,1.2-0.6,1.7
		c-0.1,0.5,0.7,0.5,0.6,1c-0.8,0.2-1.6,0.1-2.2-0.4c-0.4-0.3-0.5-1.1-1.1-1.2c-0.6,0-0.7,0.8-0.9,1.2c-0.2,0.4,0,1.2-0.4,1.5
		l-0.4-0.1c-2-0.7-3.8-1.8-5.6-3.1c-1-0.8-1.8-2-2.6-3c-0.4-1.2-0.6-3-2.2-3.3c-0.3,0-0.8,0.1-0.8,0.5l-0.1,0.5
		c-0.8,0-1.6-0.6-2.4-0.3c-0.4,0.3-0.8,0.6-1,0.9c0,0.9,1,0.6,1.2,1.2c0,0.6,0.5,1.2,0.8,1.6c-0.2,0.3-0.6,0.5-0.8,0.9l-0.5,1.2
		c0.2,0.4,0.4,0.9,0.9,0.9c0.7-0.3,1.3,0.2,2,0.1c0.4,0,1.2-0.3,1.2,0.4c0.2,0.6,0,1.1-0.1,1.7c-0.6,0.9-1.5,1.6-2.4,2.1
		c-0.3,0.2-0.3,0.6-0.2,0.9c0.3,0.5,1.1,0.3,1.7,0.2c1,0,1.8-0.6,2.8-0.7c0.2,0.5,0.6,1.1,1.1,1.3c0.8,0.2,1-0.9,1.8-0.6
		c0.6,0.5,0.4,1.4,1,2c0,0.3-0.3,0.3-0.5,0.5c-0.8,0.3-2,0-2.7,0.7c-0.1,0.4,0.2,0.7,0.5,0.9c0.7,0.4,1.7,0.5,2.6,0.6
		c0.8,0.1,1.6-0.2,2.4,0l-0.2,0.4l-2.4,1.6c-1.1,0.4-2.3,0.7-3.3,1.2c-1.5,0.4-2.2-1.5-3.6-1.4c-0.6,0-1,0.2-1.4,0.5
		c-0.3,0.3-0.4,0.9-0.3,1.3c0.2,0.4,0.8,0.2,0.8,0.7c-0.1,1.4-1.2,2.4-1.3,3.8c-0.1,0.3,0,0.8,0.4,0.9c0.3,0.1,0.6,0,0.8-0.2
		c0.3-0.3,0.3-0.7,0.8-0.8c0.8,0.1,1.7,0.1,2.3-0.6c0.3,0,0.6,0.3,0.6,0.5c0,0.3,0,0.7,0.3,0.9c1.2,0,1.8-1.2,2.4-2.1
		c0.5-0.1,1.1-0.5,1.7-0.2c0.2,0.8-0.5,1.4-0.6,2.2c0,0.2,0.3,0.4,0.5,0.4c1.5-0.2,2.3-1.6,3.2-2.7c0.1-0.3,0.3-0.7,0.7-0.7
		c1.1,0.3,1.4-1,2.1-1.5h0.3c0.1,0.3-0.1,0.6,0,0.9c0.5,0.5,1-0.1,1.5-0.1l1-0.6c1.2,0.4,2.5,0.7,3.8,1c1,0.4,0,1.5,0.6,2.1
		c-0.1,0.3-0.6,0.4-1,0.4c-2.2,0.3-4.7-0.3-6.4,1.3l-1,1c-1.6,0.1-2.5,1.4-3.9,1.7c-1,0.7-2.5-0.3-3.2,0.8c0.5,1,1.7,1.4,2.8,1.7
		c0.4,0.2,1.2-0.1,1.4,0.4c0.1,0.5,0.2,1.1,0.7,1.3c0.4,0.1,0.7-0.5,1.1-0.2c0.5,0.7,1.3,1.1,1.8,1.8c-0.3,0.6-1.2,0.2-1.8,0.2
		l-0.1,0c-0.9,0.1-2,0.5-2.7-0.3c-0.9-0.7-1.7-1.8-3-1.8c-0.7,0.2-1.5,0.5-1.7,1.3c-0.1,0.5,0.4,0.7,0.6,1c-0.9,0.6-1.8,1.5-1.5,2.7
		c0.1,0.2,0.2,0.5,0.5,0.5c0.4,0,0.8-0.4,1.2-0.2c0.1,0.7-0.1,1.9,0.8,2.2c0.7-0.1,1.2-0.8,1.9-0.3c0.7,0.3,1.3-0.3,2-0.6
		c1,0,1.4,1,1.8,1.7c0.6,0.5,1.5,1.3,2.4,0.8c0.6-0.8-0.5-1.9,0.6-2.5c0.7-0.2,1.3,0,2-0.1c1.1,0.1,2.4,0.2,3-1l1-1.7l0.2-1
		c0.6-0.2,1.6,0.8,1.9-0.1c-0.3-1-0.4-2-0.3-3.1c0.2-0.7,0.5-1.4,1-1.9l0.2,0.1c0.3,1.2,0.3,2.5,0.9,3.6c-0.1,1.1-0.7,2.1-0.8,3.2
		c-0.3,1.2-1.1,2.1-2.2,2.7c-0.3,0.2-0.4,0.5-0.3,0.9c0.3,0.6,1,0.2,1.6,0.3c1.5-0.2,2.9-0.9,4-2.1c1.1,0.3,1.6-1,2.6-0.4
		c1,0.8,2.9-0.6,3.3,1.1c-0.2,0.8,0.6,2.2-0.7,2.6c-1.3-0.2-2.8-1.9-4-0.4c-0.3,0.3-0.5,0.7-0.3,1.1c0.2,0.4,0.4,0.8,0.1,1.1
		c-0.3,0.6-0.8,1.3-0.5,2.1c0.2,0.4,0.7,0.4,1.2,0.4c0.7-0.3,1.4,0.3,2.2,0.4c0.6,0.5,1.3,1.1,2.1,1c0.3-0.2,0.3-0.6,0.5-0.9
		c0.5-0.4,1.7-0.3,1.7-1.3c0.1-0.7,0.8-1.4,1.4-1.8C119,279.6,120.4,279.3,120.8,278.6z"/>
	<path id="XMLID_37_" d="M120.8,278.6l0.1-0.1l0,0L120.8,278.6l0,0.1h0v-0.3h0v0.3h0v-0.3h0v0.3h0h0.4l-0.3-0.2
		c-0.2-0.2-0.5-0.6-0.7-0.7l-0.1,0.1l0.1,0l0-0.2c0-0.4,0.2-0.8,0.5-1.2c0.3-0.4,0.6-0.8,0.6-1.4c0-0.3-0.1-0.6-0.3-0.9l-0.1,0.1
		l0.1,0c-0.2-0.8,0-1.9-0.9-2.6l-0.1,0.1l0.1-0.1c-0.6-0.5-1.4-0.6-2.1-1l-0.1,0.1h0.1l0-0.1c0-0.1,0.3,0,0.6-0.1l-0.1-0.1l0,0.1
		l0.3,0c0.6,0,1.2,0.5,1.8,0.5c0.3,0,0.6-0.1,0.8-0.4l0,0l0,0l0-0.2c0-0.8-0.7-1.4-1.1-1.8l0,0l0,0c-0.8-0.6-1.9-0.8-2.9-1
		c-1-0.2-1.9-0.6-2.4-1.4L115,266l0.1,0.1l0.2-0.1l-0.1-0.1l0,0.1c0.4,0.1,0.9,0.1,1.3,0.1c1.2,0,2.4-0.4,3.3-1.2l0,0l0,0
		c0.7-0.9,1.4-1.8,2.4-2l0,0l0,0c1.2-0.9,1.3-2.3,1.3-3.7h-0.1l0.1,0c0-0.5,0.3-1,0.7-1.3l-0.1-0.1l0.1,0.1c0.2-0.2,0.7-0.3,1.1-0.5
		c0.2-0.1,0.4-0.2,0.6-0.3c0.2-0.1,0.3-0.3,0.3-0.6l0-0.3l0-0.1l-0.1,0c-0.7-0.4-1.5-0.8-2.4-0.8l-0.3,0l0,0.1l0.1-0.1l-0.1-0.1
		l0.1-0.2l0.3-0.3l-0.1-0.1l0.1,0.1c0.8-0.5,1.7-0.9,2.6-1.5c0.8-0.6,1.5-1.3,1.5-2.5l0-0.1l0,0l0,0c-0.1-0.1-0.1-0.2-0.1-0.4
		c-0.1-0.2-0.2-0.3-0.5-0.4l0,0l0,0c-0.8,0.1-1.2,0.8-1.8,1l0,0l0,0c-1.4,0.8-3.3,0.7-4.8,1.6l0.1,0.1v-0.1l-0.1,0l0-0.1l0.1-0.2
		l0,0l0,0c0.2-0.3,0.6-0.5,1-0.7c0.4-0.2,0.8-0.5,1-1l0,0c0.3-0.8,0.5-1.7,1.2-1.9l0,0l0,0c0.2-0.2,0.5-0.3,0.8-0.4
		c0.3-0.1,0.6-0.3,0.8-0.6l0,0l0,0c-0.1-0.5-0.5-0.6-0.8-0.7l0,0l0,0c-0.3-0.1-0.6-0.1-0.8-0.1c-1.2,0-2.3,0.7-3.1,1.5l0.1,0.1
		l-0.1-0.1c-1,0.4-2.2,0.8-3.1,1.7l0.1,0.1l0-0.1l0,0l-0.2-0.2v0l0,0l0-0.3c0-1.7,1.6-3.1,2.8-4.2L120,245l0,0.1
		c0.8-0.2,1.5-1,2.2-1c0.2,0,0.3,0,0.5,0.1l0.1-0.1l-0.1,0.1c0.6,0.3,1.2,0.6,1.8,0.6c0.2,0,0.4,0,0.7-0.1l0,0
		c1.2-0.4,1.4-1.7,2.3-2.2l-0.1-0.1l0,0.1l0.2,0c0.4,0,0.9,0.3,1.4,0.3c0.3,0,0.6-0.2,0.7-0.5l0,0l0,0c0-0.1,0-0.3,0-0.4
		c0-1-0.8-1.6-1.2-2.2l-0.1,0.1l0.1,0c0.2-0.5,0.3-1,0.3-1.4c0-1.2-0.5-2.3-1.4-3.1l0,0l0,0c-0.5-0.3-1-0.5-1.6-0.5
		c-0.2,0-0.4,0-0.6,0.1l0,0l0,0c-0.1,0.2-0.2,0.3-0.2,0.5c0,0.3,0.2,0.5,0.4,0.8c0.2,0.2,0.3,0.4,0.3,0.7l0,0l0,0.3
		c0,1.2-0.7,2-1.6,2.6c-0.9,0.6-2.1,1.1-3,1.6l0.1,0.1l-0.1-0.1c-3.5,1.7-7.7,4.4-8,8.9l0,0l0,0c0,2.5,1.1,4.7,2.8,6.5l0.1-0.1
		l-0.1,0.1c0.8,1.3,1.9,2.5,1.9,4c0,0.3,0,0.5-0.1,0.8l0.1,0l-0.1-0.1c-0.3,0.7-1.1,0.8-1.9,0.8v0.1l0-0.1c-2.9-0.2-4.5-3.4-5.7-5.7
		l-0.1,0.1l0.1-0.1c-0.4-0.9-0.9-1.7-1-2.7l-0.1,0l0.1,0.1l0.1-0.1l0.2,0.1l0.1-0.1l-0.1,0.1c0.2,0.2,0.3,0.6,0.5,0.9
		c0.2,0.3,0.4,0.7,0.9,0.7l0.2,0l0.1,0l0,0c0.3-0.4,0.4-0.8,0.4-1.3c0-0.8-0.3-1.5-0.6-2.2l0,0l0,0c-0.6-1-1.7-1.5-2.1-2.4l-0.1,0.1
		l0.1,0l0,0l0.1-0.2c0.1-0.1,0.3-0.1,0.5-0.2c0.2-0.1,0.4-0.2,0.5-0.6l0,0l0,0c-0.3-0.8-0.4-1.7-0.4-2.5c0-0.4,0-0.8,0.1-1.2l-0.1,0
		l0.1,0c0.1-0.2,0.3-0.3,0.5-0.5c0.2-0.1,0.5-0.4,0.5-0.8v0l0,0c-0.2-0.9-0.3-1.7-0.3-2.7c0-0.4,0-0.7,0-1.1l-0.1,0l0.1,0
		c0.1-0.6,0.5-1.2,0.5-1.9c0-0.2,0-0.5-0.2-0.7l0-0.1l-0.1,0c-0.2-0.1-0.3-0.1-0.3-0.2c-0.1-0.2-0.1-0.4-0.1-0.7
		c0-0.3-0.2-0.5-0.5-0.7l0,0h0c-1.6,0-2.8-0.9-4.3-1.4l0,0l0,0c-0.1,0-0.3-0.1-0.4-0.1c-0.6,0-1.1,0.3-1.5,0.4l0,0.1l0-0.1
		c-0.9,0.2-1.9,0.2-2.6,0.9l0,0l0,0c-0.3,0.4-0.4,0.8-0.4,1.3c0,0.2,0,0.4,0,0.7h0.1l-0.1,0l-0.1,0.1c-0.1,0-0.3-0.1-0.5-0.2l0,0.1
		l0.1-0.1c-0.5-0.3-0.7-0.7-0.7-1.3c0-0.1,0-0.3,0.1-0.5l0,0l0-0.2c0-0.3-0.2-0.6-0.4-0.8l0,0l0,0c-0.3-0.2-0.7-0.4-1.2-0.4
		c-0.2,0-0.4,0-0.6,0.1l0,0.1l0-0.1c-0.8,0.3-1,1.1-1.3,1.7l0,0l0,0l0,0.3c0,0.4,0.1,0.9,0.3,1.3l0,0l0,0c1,1.1,2.4,1.5,3.5,2.3
		l0.1-0.1l-0.1,0l0,0.3c0,0.4-0.3,0.9-0.6,1.3l0,0l0,0l0,0.1c0,0.3,0.2,0.5,0.4,0.6c0.2,0.1,0.3,0.2,0.3,0.3l0,0.1l0.1,0l0-0.1
		c-0.2,0.1-0.4,0.1-0.6,0.1c-0.5,0-1-0.2-1.4-0.5l-0.1,0.1l0.1-0.1c-0.2-0.1-0.3-0.4-0.5-0.7c-0.2-0.3-0.4-0.5-0.8-0.6l0,0h0
		c-0.4,0-0.6,0.3-0.7,0.5c-0.1,0.3-0.2,0.6-0.3,0.7l0,0l0,0c-0.1,0.3-0.1,0.6-0.2,0.8c0,0.3-0.1,0.5-0.2,0.6l0.1,0.1l0-0.1l-0.4-0.1
		l0,0.1l0-0.1c-2-0.7-3.8-1.8-5.6-3.1c-1-0.8-1.7-1.9-2.5-3l-0.1,0.1l0.1,0c-0.2-0.6-0.3-1.4-0.6-2c-0.3-0.7-0.8-1.2-1.6-1.4l0,0
		l0,0c-0.2,0-0.4,0-0.6,0.1c-0.2,0.1-0.4,0.2-0.4,0.5l0.1,0l-0.1,0l-0.1,0.5l0.1,0v-0.1c-0.6,0-1.2-0.3-1.9-0.3
		c-0.2,0-0.4,0-0.6,0.1l0,0l0,0c-0.4,0.3-0.8,0.6-1.1,1l0,0l0,0l0,0.1c0,0.5,0.3,0.7,0.6,0.8c0.3,0.1,0.5,0.2,0.6,0.4l0.1,0h-0.1
		c0,0.7,0.5,1.3,0.8,1.7l0.1-0.1l-0.1-0.1c-0.2,0.3-0.6,0.5-0.8,0.9l0,0l-0.5,1.2l0,0.1l0,0.1c0.2,0.4,0.4,0.9,1,1l0,0l0,0
		c0.1-0.1,0.3-0.1,0.4-0.1c0.4,0,0.8,0.2,1.4,0.2l0.2,0l0-0.1l0,0.1l0.1,0c0.2,0,0.5-0.1,0.7-0.1l0.2,0.1c0,0,0.1,0.1,0.1,0.3l0,0
		l0,0c0.1,0.2,0.1,0.3,0.1,0.5c0,0.4-0.1,0.7-0.2,1.1l0.1,0l-0.1-0.1c-0.6,0.9-1.5,1.6-2.4,2l0,0l0,0c-0.2,0.2-0.3,0.4-0.3,0.7
		c0,0.1,0,0.3,0.1,0.4l0,0l0,0c0.2,0.3,0.6,0.4,0.9,0.4c0.3,0,0.6-0.1,0.9-0.1l0-0.1l0,0.1c1.1-0.1,1.9-0.7,2.8-0.7l0-0.1l-0.1,0.1
		c0.3,0.5,0.7,1.1,1.2,1.4l0,0l0,0l0.2,0c0.3,0,0.6-0.2,0.8-0.4c0.2-0.2,0.4-0.3,0.6-0.3l0.2,0l0-0.1l-0.1,0.1
		c0.3,0.2,0.4,0.5,0.5,0.9c0.1,0.4,0.2,0.8,0.5,1.1l0.1-0.1l-0.1,0l0,0l-0.1,0.2l-0.3,0.2l0.1,0.1l0-0.1c-0.4,0.1-0.9,0.1-1.4,0.2
		c-0.5,0.1-1,0.2-1.3,0.5l0,0l0,0l0,0.2c0,0.4,0.3,0.7,0.6,0.9l0.1-0.1l-0.1,0.1c0.8,0.4,1.7,0.5,2.6,0.7l0,0l0,0l0.4,0
		c0.5,0,1-0.1,1.4-0.1c0.2,0,0.4,0,0.6,0.1l0-0.1l-0.1-0.1l-0.2,0.4l-2.4,1.6l0.1,0.1l-0.1-0.1c-1.1,0.4-2.3,0.7-3.3,1.2l0.1,0.1
		l0-0.1c-0.1,0-0.3,0-0.4,0c-0.5,0-1-0.3-1.4-0.7c-0.5-0.4-0.9-0.8-1.6-0.8l-0.1,0l0,0.1v-0.1c-0.6,0-1.1,0.2-1.5,0.6l0,0l0,0
		c-0.3,0.3-0.4,0.7-0.4,1c0,0.1,0,0.3,0,0.4l0,0l0,0c0.1,0.3,0.4,0.4,0.6,0.4l0.2,0.1l0.1,0.2h0.1l-0.1,0c0,1.3-1.2,2.3-1.3,3.8
		l0.1,0l-0.1,0l0,0.2c0,0.3,0.1,0.7,0.5,0.9l0.1-0.1l-0.1,0.1l0.4,0.1c0.2,0,0.5-0.1,0.7-0.3c0.2-0.2,0.2-0.4,0.3-0.5
		c0.1-0.1,0.2-0.2,0.4-0.3l0-0.1l0,0.1c0.2,0,0.5,0,0.7,0c0.6,0,1.3-0.1,1.7-0.6l-0.1-0.1l0,0.1l0,0l0.3,0.1L86,260
		c0,0.2,0,0.4,0,0.6c0,0.2,0.2,0.4,0.4,0.5l0,0l0,0l0.1,0c0.6,0,1.1-0.3,1.5-0.8c0.4-0.4,0.7-1,0.9-1.4l-0.1-0.1l0,0.1
		c0.4-0.1,0.8-0.3,1.2-0.3c0.1,0,0.3,0,0.4,0.1l0.1-0.1l-0.1,0l0,0.3c0,0.6-0.5,1.1-0.7,1.9l0,0l0,0c0.1,0.3,0.4,0.5,0.6,0.6l0,0
		l0,0c1.6-0.2,2.4-1.6,3.3-2.7l0,0l0,0c0.1-0.2,0.1-0.3,0.2-0.4c0.1-0.1,0.2-0.2,0.4-0.2v-0.1l0,0.1c0.1,0,0.3,0.1,0.4,0.1
		c0.5,0,0.8-0.3,1.1-0.7c0.3-0.3,0.5-0.7,0.8-0.9l-0.1-0.1v0.1h0.3v-0.1l-0.1,0l0,0.1c0,0.1-0.1,0.3-0.1,0.5l0.1,0.3l0,0l0,0
		c0.2,0.2,0.4,0.3,0.6,0.3c0.4,0,0.8-0.3,1.1-0.4l0,0l1.1-0.7l-0.1-0.1l0,0.1c1.2,0.4,2.5,0.7,3.8,1l0-0.1l0,0.1
		c0.3,0.1,0.4,0.3,0.4,0.6c0,0.2-0.1,0.5-0.1,0.8c0,0.2,0.1,0.5,0.3,0.7l0.1-0.1l-0.1-0.1c-0.1,0.3-0.5,0.4-0.9,0.4h0l0,0
		c-2.1,0.3-4.7-0.3-6.5,1.4l0,0l-1,1l0.1,0.1l0-0.1c-1.7,0.1-2.6,1.5-4,1.7l0,0l0,0c-0.3,0.2-0.6,0.2-1,0.2c-0.3,0-0.5,0-0.8,0
		c-0.5,0-1,0.1-1.4,0.7l0,0.1l0,0.1c0.5,1.1,1.8,1.5,2.9,1.8l0-0.1l-0.1,0.1c0.3,0.1,0.6,0.1,0.8,0.1c0.3,0,0.4,0.1,0.5,0.3l0.1-0.1
		l-0.1,0c0.1,0.5,0.2,1.2,0.8,1.4l0,0l0,0l0.2,0c0.2,0,0.3-0.1,0.4-0.2l0.3-0.1l0.2,0.1l0.1-0.1l-0.1,0.1c0.6,0.8,1.4,1.1,1.8,1.8
		l0.1-0.1l-0.1-0.1c-0.1,0.2-0.3,0.3-0.6,0.3c-0.3,0-0.7-0.1-1.1-0.1v0.1l0.1-0.1l-0.1,0l0,0l0,0c-0.5,0.1-1,0.2-1.5,0.2
		c-0.4,0-0.8-0.1-1.1-0.4l0,0l0,0c-0.9-0.7-1.7-1.8-3.1-1.8h0l0,0c-0.7,0.2-1.6,0.5-1.8,1.4l0,0.1c0,0.5,0.5,0.7,0.6,0.9l0.1-0.1
		l-0.1-0.1c-0.8,0.5-1.6,1.3-1.6,2.4c0,0.2,0,0.3,0.1,0.5l0,0l0,0l0.2,0.4c0.1,0.1,0.3,0.2,0.5,0.2c0.4,0,0.7-0.2,0.9-0.2l0.2,0.1
		l0.1-0.1l-0.1,0c0,0.4,0,0.8,0.1,1.3c0.1,0.4,0.3,0.9,0.8,1.1l0,0l0,0c0.6-0.1,1-0.5,1.4-0.5c0.1,0,0.3,0,0.5,0.2l0,0l0,0
		c0.2,0.1,0.3,0.1,0.5,0.1c0.6,0,1.1-0.5,1.6-0.7l0-0.1v0.1c0.5,0,0.8,0.2,1,0.5c0.3,0.3,0.4,0.7,0.6,1.1l0,0l0,0
		c0.5,0.4,1.2,1,1.9,1c0.2,0,0.4-0.1,0.6-0.2l0,0l0,0c0.2-0.2,0.2-0.5,0.2-0.7c0-0.4-0.1-0.8-0.1-1.1c0-0.3,0.1-0.5,0.4-0.7
		l-0.1-0.1l0,0.1c0.2-0.1,0.4-0.1,0.6-0.1c0.3,0,0.5,0,0.8,0c0.2,0,0.4,0,0.6-0.1l0-0.1l0,0.1c0.3,0,0.6,0.1,1,0.1
		c0.8,0,1.7-0.2,2.2-1.1l-0.1-0.1l0.1,0.1l1-1.7l0.2-1.1l-0.1,0l0,0.1l0.1,0c0.3,0,0.8,0.3,1.2,0.3c0.3,0,0.5-0.2,0.6-0.5l0,0l0,0
		c-0.2-0.7-0.4-1.3-0.4-2.1c0-0.3,0-0.6,0.1-0.9l-0.1,0l0.1,0c0.2-0.7,0.5-1.4,1-1.9l-0.1-0.1l-0.1,0.1l0.2,0.1l0.1-0.1l-0.1,0
		c0.3,1.2,0.3,2.5,0.9,3.6l0.1-0.1l-0.1,0c-0.1,1.1-0.7,2.1-0.8,3.2l0.1,0l-0.1,0c-0.3,1.1-1.1,2.1-2.1,2.6l0,0l0,0
		c-0.2,0.2-0.4,0.4-0.4,0.7l0.1,0.3l0,0l0,0c0.2,0.4,0.5,0.4,0.9,0.4c0.2,0,0.4,0,0.5,0l0.3,0l0,0l0,0c1.6-0.2,3-1,4.1-2.1l-0.1-0.1
		l0,0.1l0.4,0c0.4,0,0.7-0.2,1-0.3c0.3-0.2,0.5-0.3,0.8-0.3c0.1,0,0.3,0,0.4,0.1l0.1-0.1l-0.1,0.1c0.3,0.2,0.7,0.3,1.1,0.3
		c0.4,0,0.8-0.1,1.1-0.1c0.5,0,0.9,0.1,1,0.8l0.1,0l-0.1,0l0,0.3c0,0.4,0.1,0.8,0.1,1.2c0,0.5-0.1,0.8-0.7,1l0,0.1l0-0.1
		c-0.8-0.1-1.8-1-2.9-1c-0.4,0-0.9,0.2-1.3,0.7l0.1,0.1l-0.1-0.1c-0.2,0.2-0.4,0.5-0.4,0.9l0.1,0.4l0,0l0,0c0.1,0.2,0.3,0.5,0.3,0.6
		l-0.1,0.3l0,0l0,0c-0.3,0.5-0.6,1-0.6,1.7c0,0.2,0,0.4,0.1,0.5l0,0l0,0c0.2,0.4,0.6,0.5,0.9,0.5c0.2,0,0.3,0,0.4,0l0,0l0,0l0.4-0.1
		c0.5,0,1.1,0.4,1.7,0.5l0-0.1l-0.1,0.1c0.6,0.5,1.2,1.1,2.1,1.1l0.1,0l0,0l0,0c0.2-0.1,0.3-0.3,0.4-0.5c0.1-0.2,0.1-0.3,0.2-0.5
		l-0.1-0.1l0.1,0.1c0.2-0.2,0.6-0.3,1-0.4c0.4-0.2,0.7-0.4,0.7-1h-0.1l0.1,0c0.1-0.7,0.7-1.3,1.4-1.7l-0.1-0.1l0,0.1l0.1,0
		c0.2,0,0.6-0.1,1-0.3c0.4-0.2,0.9-0.4,1.1-0.8l0.1-0.1l-0.1-0.1L120.8,278.6l-0.1-0.1c-0.2,0.3-0.5,0.5-0.9,0.7
		c-0.4,0.2-0.8,0.3-0.9,0.3l0,0l0,0.1l0-0.1l0,0l0,0.1l0-0.1l-0.1,0l-0.1,0c-0.7,0.4-1.3,1.1-1.5,1.9l0,0v0c0,0.4-0.2,0.6-0.6,0.7
		c-0.3,0.1-0.8,0.2-1.1,0.5l0,0l0,0c-0.1,0.2-0.2,0.4-0.3,0.5c-0.1,0.2-0.1,0.3-0.2,0.4l0.1,0.1l0-0.1l-0.1,0c-0.7,0-1.3-0.5-1.9-1
		l0,0l0,0c-0.5,0-1.1-0.5-1.8-0.5c-0.2,0-0.3,0-0.5,0.1l0.1,0.1l0-0.1l-0.4,0c-0.3,0-0.5-0.1-0.6-0.3l-0.1,0.1l0.1-0.1
		c-0.1-0.1-0.1-0.3-0.1-0.4c0-0.5,0.3-1.1,0.6-1.5l-0.1-0.1l0.1,0.1c0.2-0.1,0.2-0.3,0.2-0.5c0-0.3-0.2-0.6-0.3-0.8l-0.1,0.1
		l0.1-0.1l-0.1-0.3c0-0.2,0.1-0.5,0.3-0.7l0,0l0,0c0.4-0.4,0.7-0.6,1.1-0.6c0.9,0,1.9,0.8,2.8,1l0,0l0,0c0.7-0.2,0.9-0.7,0.9-1.2
		c0-0.4-0.1-0.9-0.1-1.2l0-0.2l0,0l0,0c-0.2-0.8-0.7-1-1.3-1c-0.4,0-0.8,0.1-1.1,0.1c-0.3,0-0.7-0.1-0.9-0.2l0,0l0,0
		c-0.2-0.1-0.4-0.2-0.6-0.2c-0.4,0-0.6,0.2-0.9,0.3c-0.3,0.2-0.6,0.3-0.9,0.3l-0.3,0l-0.1,0l-0.1,0.1c-1,1.1-2.4,1.8-3.9,2l0,0.1
		l0-0.1l-0.3,0c-0.2,0-0.4,0-0.5,0c-0.3,0-0.5,0-0.6-0.3l-0.1,0.1l0.1-0.1l0-0.2c0-0.2,0.1-0.4,0.3-0.5l-0.1-0.1l0.1,0.1
		c1.1-0.6,2-1.5,2.3-2.8l0,0l0,0c0.1-1.1,0.7-2.1,0.8-3.2l0,0l0,0c-0.5-1.1-0.6-2.3-0.9-3.6l0-0.1l-0.3-0.1l-0.1,0l-0.1,0.1
		c-0.5,0.5-0.9,1.2-1.1,2l0,0l0,0c0,0.3-0.1,0.7-0.1,1c0,0.7,0.1,1.4,0.4,2.1l0.1,0l-0.1,0c-0.1,0.3-0.2,0.3-0.3,0.3
		c-0.3,0-0.8-0.3-1.2-0.3l-0.2,0l-0.1,0l-0.2,1.1l-1,1.7l0,0c-0.4,0.8-1.1,1-1.9,1c-0.3,0-0.6,0-0.9-0.1l0,0l0,0
		c-0.2,0-0.3,0.1-0.5,0.1c-0.3,0-0.5,0-0.8,0c-0.2,0-0.4,0-0.7,0.1l0,0l0,0c-0.5,0.2-0.6,0.6-0.6,0.9c0,0.4,0.1,0.7,0.1,1.1
		c0,0.2,0,0.4-0.2,0.6l0.1,0.1l-0.1-0.1c-0.2,0.1-0.3,0.1-0.5,0.1c-0.6,0-1.3-0.5-1.8-0.9l-0.1,0.1l0.1-0.1
		c-0.2-0.4-0.4-0.8-0.6-1.2c-0.3-0.4-0.7-0.6-1.3-0.6h0l0,0c-0.6,0.2-1,0.7-1.5,0.6l-0.4-0.1l-0.1,0.1l0.1-0.1
		c-0.2-0.2-0.4-0.2-0.6-0.2c-0.6,0-1,0.4-1.4,0.5l0,0.1l0.1-0.1c-0.4-0.2-0.5-0.5-0.6-0.9c-0.1-0.4,0-0.9-0.1-1.3l0-0.1l-0.1,0
		l-0.4-0.1c-0.4,0-0.7,0.2-0.9,0.2c-0.1,0-0.2,0-0.3-0.1l-0.2-0.3l-0.1,0.1l0.1,0c0-0.1-0.1-0.3-0.1-0.4c0-0.9,0.8-1.6,1.5-2.2
		l0.1-0.1l-0.1-0.1c-0.2-0.3-0.6-0.5-0.6-0.8l0-0.1c0.1-0.7,0.8-1,1.6-1.2l0-0.1v0.1c1.3,0,2,1,2.9,1.7l0.1-0.1l-0.1,0.1
		c0.3,0.4,0.8,0.6,1.3,0.6c0.5,0,1.1-0.2,1.5-0.2l0-0.1l-0.1,0.1l0.1,0l0,0h0c0.3,0,0.7,0.1,1.1,0.1c0.3,0,0.6-0.1,0.8-0.4l0-0.1
		l0-0.1c-0.5-0.7-1.3-1.1-1.8-1.8l0,0l0,0l-0.3-0.1c-0.2,0-0.3,0.1-0.4,0.2l-0.3,0.1l-0.1,0l0,0.1l0-0.1c-0.5-0.2-0.6-0.7-0.7-1.2
		l0,0l0,0c-0.2-0.3-0.5-0.4-0.7-0.4c-0.3,0-0.6,0-0.7-0.1l0,0l0,0c-1.1-0.3-2.3-0.6-2.7-1.6l-0.1,0.1l0.1,0.1
		c0.3-0.4,0.6-0.5,1.1-0.5c0.3,0,0.5,0,0.8,0c0.4,0,0.8,0,1.2-0.3l-0.1-0.1l0,0.1c1.6-0.3,2.4-1.6,3.9-1.7l0.1,0l1.1-1.1l-0.1-0.1
		l0.1,0.1c1.7-1.6,4.1-1,6.3-1.3l0-0.1v0.1c0.5,0,1-0.1,1.2-0.5l0-0.1l-0.1-0.1c-0.1-0.1-0.2-0.3-0.2-0.5c0-0.3,0.1-0.5,0.1-0.8
		c0-0.3-0.1-0.7-0.6-0.8l0,0l0,0c-1.3-0.3-2.6-0.6-3.8-1l-0.1,0l-1.1,0.7l0.1,0.1l0-0.1c-0.4,0.1-0.8,0.4-1,0.4
		c-0.1,0-0.2,0-0.4-0.2l-0.1,0.1l0.1-0.1l0-0.2c0-0.1,0.1-0.3,0.1-0.5l0-0.2l0-0.1h-0.4h0l0,0c-0.3,0.2-0.6,0.7-0.8,1
		c-0.3,0.3-0.5,0.6-0.9,0.6l-0.3,0l0,0h0c-0.3,0-0.5,0.1-0.6,0.3c-0.1,0.2-0.2,0.3-0.3,0.5l0.1,0.1l-0.1-0.1
		c-0.9,1.1-1.7,2.4-3.1,2.6l0,0.1l0-0.1c-0.2,0-0.4-0.2-0.4-0.3l-0.1,0l0.1,0c0.1-0.6,0.7-1.2,0.7-1.9l0-0.3l0-0.1l0,0
		c-0.2-0.1-0.4-0.2-0.6-0.2c-0.4,0-0.9,0.2-1.2,0.3l-0.1,0l0,0.1c-0.3,0.4-0.6,1-0.9,1.4c-0.3,0.4-0.7,0.7-1.3,0.7l-0.1,0l0,0.1
		l0.1-0.1c-0.1-0.1-0.2-0.1-0.2-0.3c0-0.1,0-0.3,0-0.5c0-0.3-0.3-0.6-0.7-0.6l-0.1,0l0,0l0,0c-0.4,0.4-0.9,0.5-1.5,0.5
		c-0.2,0-0.4,0-0.7,0l0,0l0,0c-0.3,0-0.5,0.2-0.6,0.4c-0.1,0.2-0.2,0.3-0.3,0.5c-0.1,0.1-0.3,0.2-0.5,0.2l-0.2-0.1l0,0l0,0
		c-0.3-0.1-0.4-0.4-0.4-0.6l0-0.1l0,0l0,0c0.1-1.4,1.3-2.3,1.3-3.8l0,0v0c0-0.2-0.1-0.3-0.1-0.4c-0.1-0.1-0.3-0.1-0.4-0.2
		c-0.1-0.1-0.2-0.1-0.3-0.2l-0.1,0.1l0.1,0l0-0.4c0-0.3,0.1-0.6,0.3-0.8l-0.1-0.1l0.1,0.1c0.4-0.3,0.7-0.5,1.3-0.5h0l0,0l0.1,0
		c0.5,0,1,0.3,1.4,0.7c0.5,0.4,0.9,0.8,1.6,0.8c0.1,0,0.3,0,0.4-0.1l0,0l0,0c1-0.5,2.1-0.8,3.2-1.2l0,0l2.4-1.7l0.3-0.4l0.1-0.2
		l-0.2,0c-0.2-0.1-0.4-0.1-0.6-0.1c-0.5,0-1,0.1-1.4,0.1l-0.3,0l0,0.1l0-0.1c-0.9-0.1-1.8-0.2-2.5-0.6l0,0l0,0
		c-0.2-0.1-0.5-0.4-0.5-0.6l0-0.1l-0.1,0l0.1,0.1c0.3-0.3,0.7-0.4,1.2-0.5c0.5,0,1,0,1.4-0.2l0,0l0,0l0.3-0.2
		c0.1-0.1,0.3-0.2,0.3-0.4l0-0.1l0,0l0,0c-0.3-0.3-0.4-0.6-0.5-1c-0.1-0.4-0.2-0.8-0.6-1.1l0,0l0,0l-0.3-0.1c-0.3,0-0.5,0.2-0.7,0.4
		c-0.2,0.2-0.4,0.3-0.6,0.3l-0.2,0l0,0.1l0.1-0.1c-0.4-0.2-0.8-0.8-1.1-1.3l0-0.1l-0.1,0c-1,0.1-1.8,0.7-2.8,0.7l0,0l0,0
		c-0.3,0-0.6,0.1-0.9,0.1c-0.3,0-0.6-0.1-0.7-0.3l-0.1,0.1l0.1,0l-0.1-0.3c0-0.2,0.1-0.4,0.2-0.5l-0.1-0.1l0.1,0.1
		c1-0.5,1.8-1.2,2.5-2.1l0,0l0,0c0-0.3,0.2-0.7,0.2-1.1c0-0.2,0-0.4-0.1-0.6l-0.1,0.1l0.1,0c0-0.2-0.1-0.4-0.2-0.5
		c-0.1-0.1-0.3-0.1-0.4-0.1c-0.2,0-0.5,0.1-0.7,0.1l-0.1,0l0,0l0,0l-0.2,0c-0.4,0-0.9-0.2-1.4-0.2c-0.2,0-0.4,0-0.5,0.1l0.1,0.1
		l0-0.1c-0.4,0-0.6-0.5-0.8-0.9l-0.1,0.1l0.1,0.1l0.5-1.2l-0.1-0.1l0.1,0.1c0.2-0.3,0.6-0.5,0.8-0.9l0-0.1l0-0.1
		c-0.3-0.4-0.8-1-0.8-1.5v0l0,0c-0.1-0.4-0.5-0.5-0.7-0.6c-0.3-0.1-0.4-0.2-0.5-0.5l0-0.1l-0.1,0l0.1,0.1c0.2-0.4,0.6-0.6,1-0.9
		l-0.1-0.1l0,0.1c0.2-0.1,0.3-0.1,0.5-0.1c0.6,0,1.2,0.3,1.9,0.3h0.1l0.1-0.6l0,0l0,0c0-0.1,0.1-0.2,0.2-0.3
		c0.1-0.1,0.3-0.1,0.5-0.1l0-0.1l0,0.1c0.7,0.2,1.2,0.7,1.4,1.3c0.3,0.6,0.4,1.3,0.6,2l0,0l0,0c0.8,1,1.5,2.2,2.6,3
		c1.8,1.3,3.6,2.4,5.7,3.1l0,0l0.5,0.1l0.1,0l0,0c0.2-0.2,0.3-0.5,0.3-0.8c0-0.3,0.1-0.6,0.1-0.8l-0.1-0.1l0.1,0.1
		c0.1-0.2,0.2-0.5,0.3-0.8c0.1-0.2,0.3-0.4,0.5-0.4v-0.1l0,0.1c0.3,0,0.4,0.2,0.6,0.4c0.2,0.2,0.3,0.5,0.5,0.7l0,0l0,0
		c0.4,0.4,1,0.6,1.6,0.6c0.2,0,0.5,0,0.7-0.1l0.1,0l0-0.1l0-0.1c0-0.3-0.2-0.4-0.4-0.5c-0.2-0.1-0.3-0.2-0.3-0.4l0,0l-0.1,0l0.1,0.1
		c0.3-0.4,0.7-0.9,0.7-1.4l-0.1-0.4l0,0l0,0c-1.1-0.9-2.5-1.3-3.4-2.3l-0.1,0.1l0.1-0.1c-0.2-0.3-0.3-0.7-0.3-1.1l0-0.2l-0.1,0
		l0.1,0.1c0.3-0.6,0.5-1.4,1.1-1.6l0,0c0.2-0.1,0.3-0.1,0.5-0.1c0.4,0,0.7,0.1,1,0.3l0.1-0.1l-0.1,0.1c0.2,0.2,0.3,0.4,0.3,0.6
		l0,0.2l0.1,0l-0.1,0c0,0.2-0.1,0.4-0.1,0.5c0,0.6,0.3,1.2,0.9,1.5l0,0l0,0c0.1,0,0.3,0.2,0.5,0.2c0.2,0,0.3-0.1,0.4-0.3l0,0v0
		c0-0.2,0-0.5,0-0.7c0-0.4,0-0.8,0.3-1.1l-0.1-0.1l0.1,0.1c0.6-0.6,1.5-0.7,2.5-0.8l0,0l0,0c0.5-0.1,1-0.4,1.5-0.4l0.3,0l0-0.1
		l0,0.1c1.4,0.5,2.7,1.4,4.4,1.4v-0.1l0,0.1c0.2,0.1,0.2,0.1,0.3,0.2c0.1,0.2,0.1,0.4,0.1,0.7c0,0.3,0.2,0.6,0.6,0.7l0-0.1l-0.1,0.1
		c0.1,0.2,0.1,0.4,0.1,0.6c0,0.6-0.4,1.2-0.5,1.8l0,0l0,0c0,0.4,0,0.7,0,1.1c0,0.9,0.1,1.8,0.3,2.7l0.1,0h-0.1
		c0,0.3-0.1,0.4-0.4,0.5c-0.2,0.1-0.5,0.3-0.6,0.6l0,0l0,0c-0.1,0.4-0.1,0.8-0.1,1.3c0,0.9,0.1,1.7,0.4,2.6l0.1,0l-0.1,0
		c0,0.1-0.1,0.2-0.1,0.3c-0.1,0.1-0.3,0.1-0.5,0.2c-0.2,0.1-0.4,0.2-0.4,0.5l0,0.1l0,0l0,0c0.5,1,1.6,1.6,2.1,2.4l0.1-0.1l-0.1,0
		c0.3,0.7,0.6,1.4,0.6,2.1c0,0.4-0.1,0.8-0.3,1.1l0.1,0.1l0-0.1l-0.1,0c-0.3,0-0.5-0.2-0.6-0.5c-0.2-0.3-0.3-0.7-0.6-1l0,0l0,0
		l-0.3-0.1l-0.3,0.1l-0.1,0l0,0.1c0.1,1.1,0.6,1.9,1,2.8l0,0l0,0c1.2,2.3,2.9,5.6,5.9,5.8l0,0h0c0.7,0,1.8-0.1,2.1-1l0,0l0,0
		c0.1-0.3,0.1-0.6,0.1-0.9c0-1.6-1.2-2.8-1.9-4.1l0,0l0,0c-1.7-1.7-2.7-3.8-2.7-6.3l-0.1,0l0.1,0c0.2-4.3,4.4-7,7.8-8.7l0,0l0,0
		c0.9-0.6,2-1,3-1.6c1-0.6,1.7-1.5,1.7-2.8l0-0.3l-0.1,0l0.1,0c0-0.3-0.2-0.6-0.4-0.8c-0.2-0.2-0.3-0.4-0.3-0.6l0.1-0.3l-0.1-0.1
		l0,0.1c0.2,0,0.3-0.1,0.5-0.1c0.5,0,1,0.2,1.4,0.4l0.1-0.1l-0.1,0.1c0.8,0.7,1.3,1.8,1.3,2.9c0,0.5-0.1,0.9-0.2,1.3l0,0.1l0,0.1
		c0.5,0.7,1.2,1.3,1.2,2.1l0,0.3l0.1,0l-0.1-0.1c-0.1,0.3-0.3,0.4-0.5,0.4c-0.4,0-0.9-0.3-1.4-0.3l-0.3,0l0,0l0,0
		c-1,0.6-1.3,1.9-2.3,2.2l0,0.1l0-0.1c-0.2,0.1-0.4,0.1-0.6,0.1c-0.6,0-1.2-0.3-1.7-0.6l0,0l0,0c-0.2-0.1-0.4-0.1-0.6-0.1
		c-0.9,0-1.6,0.8-2.3,1l0,0l0,0c-1.2,1.1-2.9,2.5-2.9,4.4l0,0.3l0.1,0H117c0,0.1,0.1,0.3,0.2,0.3l0.3,0.1l0.1,0l0,0l0,0
		c0.8-0.8,1.9-1.2,3-1.7l0,0l0,0c0.8-0.8,1.8-1.5,2.9-1.5c0.3,0,0.5,0,0.8,0.1l0-0.1l0,0.1c0.3,0.1,0.6,0.3,0.7,0.5l0.1,0l-0.1-0.1
		c-0.1,0.2-0.4,0.4-0.6,0.5c-0.3,0.1-0.6,0.2-0.9,0.4l0.1,0.1l0-0.1c-0.9,0.3-1.1,1.4-1.4,2.1l0.1,0.1l-0.1-0.1
		c-0.2,0.4-0.5,0.6-0.9,0.9c-0.4,0.2-0.8,0.4-1.1,0.8l0.1,0.1l-0.1-0.1c-0.1,0.1-0.1,0.2-0.1,0.4l0.1,0.2l0.3,0.1h0l0,0
		c1.4-0.9,3.2-0.7,4.8-1.6l-0.1-0.1l0.1,0.1c0.7-0.3,1.1-1,1.7-1l0-0.1l0,0.1c0.1,0,0.2,0.1,0.2,0.2c0,0.1,0.1,0.3,0.2,0.4l0.1-0.1
		l-0.1,0l0,0.1c0,1-0.6,1.7-1.3,2.3c-0.8,0.5-1.8,1-2.6,1.5l0,0l0,0l-0.2,0.2c-0.1,0.1-0.2,0.2-0.2,0.4c0,0.1,0.1,0.3,0.2,0.3l0,0
		l0,0l0.3,0c0.8,0,1.6,0.3,2.3,0.7l0.1-0.1l-0.1,0l0,0.2c0,0.2-0.1,0.3-0.2,0.4c-0.3,0.3-1.2,0.3-1.6,0.7l0,0l0,0
		c-0.4,0.4-0.7,0.9-0.7,1.5l0,0v0c0,1.4-0.1,2.7-1.2,3.5l0.1,0.1l0-0.1c-1.1,0.3-1.8,1.2-2.5,2.1l0.1,0.1l-0.1-0.1
		c-0.8,0.7-2,1.1-3.1,1.1c-0.4,0-0.8,0-1.2-0.1l-0.1,0l-0.2,0.2l-0.1,0.1l0.1,0.1c0.6,0.9,1.6,1.2,2.6,1.5c1,0.2,2,0.4,2.8,1
		l0.1-0.1l-0.1,0.1c0.5,0.5,1.1,1,1,1.6l0,0.1l0.1,0l-0.1-0.1c-0.2,0.2-0.4,0.3-0.6,0.3c-0.5,0-1.1-0.5-1.8-0.5l-0.4,0l0,0l0,0
		c-0.1,0-0.2,0-0.4,0.1l-0.2,0.1l-0.1,0.3v0.1l0.1,0c0.7,0.5,1.5,0.6,2.1,1l0,0l0,0c0.8,0.6,0.6,1.6,0.8,2.5l0,0l0,0
		c0.2,0.3,0.3,0.5,0.3,0.7c0,0.4-0.2,0.8-0.5,1.2c-0.3,0.4-0.6,0.8-0.6,1.4l0,0.3l0,0l0,0C120.1,278,120.5,278.4,120.8,278.6
		L120.8,278.6l0-0.2h0v0.3h0v-0.3h0v0.3h0v-0.3h0h-0.4l0.3,0.3L120.8,278.6l-0.1-0.1L120.8,278.6z"/>
	<path id="XMLID_51_" class="st2" d="M97.7,235c-0.5,0.1-0.6,0.6-0.7,1.1c-0.1,0.6,0.3,1.1,0.7,1.5c1.3,0.6,2.4,1.6,3.6,2.4h0.4
		c-0.7-1.3-2.3-1.7-3.3-2.8c-0.4-0.5-0.4-1.2-0.2-1.8C98.2,235.1,98,235,97.7,235z M104.8,235c-0.9,0.6-2.2,0.3-3,0.9
		c-0.5,0.4,0.3,1-0.3,1.4c-0.1,0.3,0.1,0.6,0.2,0.8c0.8,0.7,1.9,1.6,1.6,2.8c-0.6,1.5-1.5-0.3-2.3-0.3c-0.3,0.1-0.5,0.3-0.5,0.7
		c0.1,0.2,0.3,0.2,0.5,0.2c0.2,0.1,0.5,0.3,0.4,0.6c-0.1,0.6-0.5,1.3-1.2,1.4c-0.8,0.3-1.8,0.2-2.5-0.2c-0.4-0.1-0.6-0.8-1.1-0.7
		c-0.7,0.7-0.1,1.6,0.1,2.3c-1.7,1.7-3,3.9-5.1,5.2c-0.5,0.3-1.2,0.4-1.6,0.8c0.2,0.1,0.5,0.2,0.8,0.2c1.8,0,3.6-0.3,5.1-1.2
		c0.6-0.3,1-0.9,1.6-1.1c0.8,0.3,0.1,1.2,0.4,1.7c0.4,0.1,0.6-0.3,0.9-0.5c0.3-0.2,0.6-0.3,0.7,0.1c0.6,1.8,0.1,3.8-0.5,5.4
		c0.4,0.1,0.4-0.3,0.7-0.4c1.2-1.8,2.7-3.5,3-5.6c1-0.5,1,1.1,1.6,1.5c0.5-0.4,0.6-1.3,0.7-1.9c0.1-0.2,0.3-0.1,0.5,0
		c0.5,0.9,1.2,1.9,2.1,2.4c0.6,0.2,1.2,0.6,1.8,0.6c0-0.8-0.9-1-1.4-1.6c-0.2-0.6-0.6-1.1-0.6-1.9c0.2-0.4,0.7-0.4,1-0.6
		c0.1-0.6-0.2-1.2,0-1.9c0.1-0.8-0.5-2.4,0.7-2.8l0.1-2c-0.1-0.3-0.5-0.4-0.5-0.7c0-0.6,0.5-0.7,0.7-1.1c0.1-0.5,0.3-1,0.3-1.5
		c0-0.2-0.2-0.3-0.3-0.3c-0.6,0-0.5-0.7-0.7-1C107.3,236.2,106.3,235.1,104.8,235z M84.5,235.4c-0.1,0.1-0.2,0.2-0.2,0.5
		c-0.1,0.2,0,0.7,0.3,0.9c0.1,0.1,0.4,0.3,0.6,0.1c0.1-0.2,0-0.4,0-0.7C85.3,235.9,84.8,235.2,84.5,235.4z M82,235.8
		c-0.3,0.3,0.1,0.9,0,1.4c0.1,0.7,1,0.4,1.4,1c0.6,1-0.8,1-1.1,1.6c-0.4,0.7,0.6,0.4,0.8,1c0.6,0.3,1-0.4,1.6-0.3
		c0.6,0.2,1,0.9,1.1,1.6c0.6,1.4-0.6,2.6-1.2,3.7c1,0.2,1.7-0.8,2.5-1.1c0.7,0.2,0.1,1.1,0.6,1.5c0.5,0.3,0.9-0.3,1.4-0.2
		c1.5,0.1,1.4,1.8,2.3,2.6c0.2,0.1,0.4,0.1,0.6,0.1c0.9-0.8,1.5-1.8,2.4-2.7c0.3-0.3,0.6-0.7,0.5-1.1c-2.6-0.7-4.8-2.3-6.9-4
		c-0.9-1.1-2-2.5-3.3-3.1C83.9,236.8,83.2,235.7,82,235.8z M104.5,236c0.1,0,0.3,0.1,0.4,0.2c0.5,0.3,1,0.8,1.4,1.2
		c0.1,0.3-0.1,0.6-0.5,0.7c-0.6,0-1.2,0-1.6-0.5c-0.4-0.3-0.2-0.9-0.1-1.3C104.1,236.1,104.3,236,104.5,236z M127.2,236.5
		c-0.1,0.2-0.1,0.4-0.1,0.7c-0.2,2.4-2.6,3.7-4.4,4.7c-3.4,1.6-7.6,3.9-8,8.1c-0.4,4.4,5.2,6.7,4.6,11.2c-0.2,0.9-1,1.5-1.6,2.1
		c-2.4,0.7-4.7-0.8-6.2-2.7c-1.9-2.3-2.9-5-3.6-7.8c-0.5-0.6-1.3-0.8-1.8-1.5c-1.1-0.5-1,1.1-2.1,1.1c-0.6,0.1-0.4-0.7-0.9-0.6
		l-1.3,1.9c-0.3,0.7-1.2,1.2-1.3,2c0.4,0.7,1.6,0.4,2.3,0.7c1.1,0.2,1.9,1.2,2.8,1.7c1.7,1.5,2.2,3.6,1.9,5.9
		c-0.5,1.9,0.2,3.7,0.8,5.4c0.3,0.7-0.2,1.4-0.6,2c-0.2,1-0.5,2.1-1,3c-0.1,0.4-0.5,0.8-0.3,1.1c1.4-0.3,2.3-1.6,2.9-2.8
		c0.3-0.3,0.7,0,0.9,0.2c0.3,0.2,0.4-0.2,0.7-0.2c0.3-0.1,0.6,0.1,0.8,0.2c0.6,0.6,1.7,0.3,2.5,0.6c0.9,0.1,1.9,0.7,2.1,1.6
		c-0.1,0.7,0.3,1.4,0.2,2.3c-0.6,1.8-2.7,2-4.3,2.2c-0.3,0.2-0.8,0.4-0.7,0.8c0.2,0.3,0.5,0.5,0.8,0.6c0.7,0.4,1-0.6,1.7-0.5
		c0.5,0.2,0.1,0.7,0.4,1.1c0.4,0.1,0.7-0.1,1.2-0.1c0.6-0.1,0.9-0.6,1-1.2c0.3-0.7,1.2-0.9,1.6-1.6c0.3-0.2,0.8,0.1,1.1-0.2
		c-0.5-1-0.1-2.1,0.6-2.9c0.2-0.7,0-1.3-0.3-1.9v-1.1c-0.3-0.9-1.4-0.8-2.1-1.1c-0.7-0.6-1.9-1-2.1-2.1c0.1-0.1,0.2-0.4,0.3-0.3
		c1,0.4,2.1,0.2,3.1,0.1c0.3,0.1,0.7,0.2,0.7-0.2c-0.1-0.2-0.3-0.4-0.5-0.4c-1.6-0.5-3.3-0.5-4.5-1.7c-0.5-0.8-1.3-1.4-1.4-2.4
		c0.8-0.9,1.6,0.4,2.6,0.3c1.4,0.2,2.8-0.1,3.6-1.2c0.5-0.4,0.4-1.3,1.1-1.5c2.6-0.4,1-3.4,2.5-4.8c0.2-0.4,1.1-0.4,0.9-1
		c-0.8-0.1-1.5,0.3-2.3,0.4c-0.2-0.1-0.4-0.2-0.4-0.5c0.5-1.6,2.1-3,3.7-3.5c0.2,0,0.5-0.3,0.4-0.5c-1.9,0.1-3.9,0.3-5.2,1.9
		c-0.3,0.2-0.7,0.6-1.1,0.3c-0.3-0.3-0.3-0.9-0.2-1.4c0.1-0.9,0.8-1.6,1.5-2.2c0.9-0.3,1.3-1.3,1.6-2.1c-0.1-0.2-0.2-0.1-0.3-0.1
		c-0.6,0.4-1.4,0.7-2.1,0.9c-1.2,0.3-1.6,1.4-2.1,2.3c-0.2,0.1-0.5,0.1-0.7,0c-0.8-0.9-0.9-2.1-0.6-3.2c0.7-2.9,3.2-4.5,5.7-5.7
		c0.9-0.4,1.6,0.4,2.4,0.6c1.9,0.1,2.2-2.4,4-2.5c0.1-0.4-0.5-0.6-0.7-1c-0.2-0.7,0.6-1.2,0.4-2
		C127.9,237.6,127.9,236.8,127.2,236.5z M108.4,238c0.2-0.1,0.6,0,0.7,0.2c0,0.4-0.2,0.8-0.4,1.1c-0.2,0.2-0.5,0.1-0.6-0.2
		C108,238.7,108.1,238.2,108.4,238z M105.4,241.5c0.2,0,0.4,0.1,0.5,0.2l-0.1,0.8c-0.8,0.9-0.9,2.4-2.1,3c-0.3,0.1-0.6-0.1-0.7-0.5
		c-0.1-0.5-0.2-1.3,0-1.8c0.6-0.3,0.7,0.8,1.1,0.3C104.4,242.8,105,242.2,105.4,241.5z M96.5,250.5c-0.3,0-0.5,0.1-0.8,0.2
		c-1.9,1.9-3.9,3.7-6.4,4.7c-1.6,0.3-2.8,1.3-4.3,1.6c-0.8,0.4-2,0.6-2.1,1.7c0.4,0.2,0.8,0.3,1.3,0.3c0.6,0,0.8-0.7,1.1-1.1
		c0.2-0.2,0.5-0.1,0.7,0.1c0.2,0.6,0.8,0.7,1.2,0.9c0.4,0,0.6-0.5,0.7-0.8c0.4-0.7,1.3-0.8,2.1-0.7c0.3-0.2,0.8-0.4,1.1-0.3
		c0.9,0.2,0.4,1.3,0.5,2c0.2,0.2,0.4,0,0.6-0.1c0.7-0.7,1.1-1.6,1.5-2.5c0.2-0.2,0.4-0.6,0.8-0.5c0.9,1.2,1.1-0.6,1.8-0.8
		c0.5-0.2,1.3,0.2,1.8-0.3c0.5-0.9,0.6-2.1,0.7-3.1c-0.2-0.7-0.9-0.1-1.5-0.2C96.7,251.4,96.7,250.9,96.5,250.5z M83.5,254.8
		l-0.2,0.2c0,0.4-0.1,0.9,0.2,1.2c0.6,0.2,1.3,0,1.7-0.2c0-0.6-0.7-0.7-1.1-1.1C84,254.9,83.7,254.7,83.5,254.8z M105.2,260.6
		l-2.5,0.7c-2.5,0.1-5.4,0-6.8,2.3l-1.4,0.2c-0.9,0.4-1.8,1.1-2.9,1.3c-0.3,0.2-0.8,0.1-0.9,0.5c0.6,0.5,1.6,0.2,2.3,0.2
		c0.4,0.1,0.5,0.6,0.6,1c0.4,0.2,0.7-0.3,1.1-0.2c0.2,0.1,0.4,0.3,0.5,0.6c0.2,1.3,1.8,1.6,2.3,2.6c0.2,0.4,0.1,1-0.2,1.3
		c-0.4,0.5-1.2,0.4-1.8,0.3c-1.2,0-2.2-0.3-3.3,0.1c-1.7,0.3-3.3-0.8-4.8,0.2c-0.1,0.1-0.2,0.3-0.1,0.5l1.7,0.7
		c0.2,0.3-0.1,0.7-0.1,1l0.9,0.2c0.6,0.5,1.3-0.1,1.8-0.4c0.6-0.4,1.2,0.1,1.7,0.3c0.3,0.2,0.8-0.1,1.1,0.3c0.3,0.4,0.1,1.3,0.8,1.2
		c0.2-0.5,0.5-1,0.9-1.3c1.2-1,2.7-0.4,4.2-0.6c1-0.1,0.7-1.2,1.5-1.6c0.5-0.8-0.4-1.3-0.8-2c-0.3-0.8,0.2-1.7,0.7-2.3
		c1-0.2,0.9,1.1,1.3,1.7c0.2,0.1,0.4,0.4,0.7,0.2c0-0.8,0.1-1.5,0.1-2.4c0.3-1.2,1.1-2.2,2-3c0.4-0.6,0.4-1.1,0.5-1.9
		C106.2,261.7,106,260.7,105.2,260.6z M89.3,269.3c-0.2,0-0.4,0-0.6,0.1c-0.1,0.3,0.1,0.8,0.4,1.1c0.5,0,1,0.2,1.5-0.1
		C90.3,269.9,89.8,269.4,89.3,269.3z M112.1,278.2l-0.2,0.2c0.1,0.1,0.1,0.2,0.3,0.2c0.1,0,0.4,0.1,0.4-0.2
		C112.6,278.3,112.3,278.1,112.1,278.2z"/>
	<polygon id="XMLID_52_" points="68.2,226.4 143.5,226.4 143.5,231.6 68.2,231.6 68.2,226.4 68.2,226.4 68.2,226.4 	"/>
	<polygon id="XMLID_53_" points="68.2,226.4 68.2,226.6 143.4,226.6 143.4,231.5 68.4,231.5 68.3,226.4 68.2,226.4 68.2,226.6 
		68.2,226.6 68.2,226.6 68.2,226.3 68.2,226.3 68.2,226.6 68.2,226.4 68.2,226.6 68.2,226.6 68.2,226.3 68.2,226.3 68.2,226.3 
		68.1,226.3 68.1,231.7 143.6,231.7 143.6,226.3 68.2,226.3 68.2,226.6 	"/>
	<path id="XMLID_58_" class="st2" d="M124.2,227.3h8.6v3.3h-8.6V227.3z M105.6,227.3h8.5v3.3h-8.5V227.3z M86.9,227.3h8.6v3.3h-8.6
		V227.3z M69.1,227.3h7.8v3.3h-7.8V227.3L69.1,227.3z"/>
	<path id="XMLID_59_" d="M80.5,208.2c2.5-1.1,5.3-0.3,8.1-0.5c0.7,0.2,1.8-0.4,2.2,0.4c0,0.8,0,1.6,0.1,2.4c0.3,0.6,1.1,0.1,1.5,0.4
		c0.3,0.2,0.6,0.3,0.6,0.6c0.2,0.4,0.1,0.8-0.2,1.1c-0.5,0.6-1.2,0.4-1.8,0.5l-0.2,0.3c0.1,1.5-0.3,2.8,0,4.2
		c-0.1,0.3-0.2,0.7,0.2,0.9c0.7,0,1.4,0,1.9,0.5c0.2,0.4,0.2,0.8,0.1,1.2c-0.3,1.5-2.7-0.2-2.4,1.6c0,0.7,0.2,1.6-0.1,2.2
		c-2.8,0-5.6-0.2-8.2,0c-0.5,0.4-1.1,0.7-1.7,0.7c-0.6-0.1-1-0.4-1.4-0.7c-2.5-0.1-5-0.1-7.3-0.2c-0.8-0.7-0.2-1.7-0.5-2.7
		c-0.4-0.5-1-0.1-1.5-0.4c-0.4,0-0.5-0.4-0.7-0.7c0-0.6,0-1,0.4-1.4c0.4-0.3,1-0.3,1.5-0.3l0.3-0.3c-0.2-1.7,0.3-3.3-0.1-5.1
		c-0.3-0.4-0.7,0-1-0.3c-0.5-0.1-0.9-0.3-1.1-0.8c-0.1-0.4-0.2-0.8,0.2-1.2c0.6-0.6,1.5,0.1,2-0.5l0.2-2.4c0.4-0.7,1.4-0.4,2.1-0.4
		c1.2-0.3,2.8-0.1,4.1,0C78.8,207.7,79.7,207.9,80.5,208.2z"/>
	<path id="XMLID_60_" d="M80.5,208.2l0.1,0.1c1.1-0.5,2.2-0.6,3.3-0.6c1.3,0,2.6,0.1,3.9,0.1c0.3,0,0.5,0,0.8,0l0-0.1l0,0.1l0.4,0
		c0.3,0,0.7-0.1,1-0.1c0.4,0,0.6,0.1,0.8,0.4l0.1-0.1h-0.1c0,0.8,0,1.6,0.1,2.4l0,0l0,0c0.1,0.3,0.5,0.4,0.8,0.4c0.1,0,0.3,0,0.4,0
		c0.2,0,0.3,0,0.4,0.1l0,0l0,0c0.3,0.2,0.5,0.3,0.5,0.5l0,0l0,0l0.1,0.3c0,0.2-0.1,0.5-0.2,0.7l0.1,0.1l-0.1-0.1
		c-0.4,0.5-1,0.3-1.8,0.5l-0.1,0l-0.2,0.4l0,0l0,0c0,0.2,0,0.3,0,0.5c0,0.9-0.1,1.7-0.1,2.5c0,0.4,0,0.8,0.1,1.2l0.1,0l-0.1,0
		c0,0.1-0.1,0.3-0.1,0.5c0,0.2,0.1,0.5,0.3,0.6l0,0h0c0.7,0,1.4,0,1.8,0.4l0.1-0.1l-0.1,0.1c0.1,0.2,0.2,0.4,0.2,0.6
		c0,0.2,0,0.3-0.1,0.5l0,0l0,0c-0.1,0.3-0.2,0.4-0.3,0.5c-0.2,0.1-0.4,0.1-0.6,0.1c-0.2,0-0.4,0-0.6,0c-0.2,0-0.5,0-0.6,0.1
		c-0.2,0.1-0.3,0.3-0.3,0.7l0,0.3l0.1,0h-0.1c0,0.4,0,0.8,0,1.2c0,0.3,0,0.7-0.1,0.9l0.1,0.1V224c-2,0-4-0.1-6-0.1
		c-0.7,0-1.5,0-2.2,0.1l0,0l0,0c-0.4,0.4-1,0.6-1.7,0.7l0,0.1l0-0.1c-0.5-0.1-0.9-0.4-1.4-0.7l0,0l0,0c-2.5-0.1-5-0.1-7.4-0.2l0,0.1
		l0.1-0.1c-0.3-0.3-0.4-0.6-0.4-1c0-0.3,0-0.6,0-0.9c0-0.2,0-0.5-0.1-0.7l0,0l0,0c-0.2-0.3-0.6-0.3-0.8-0.3l-0.2,0
		c-0.2,0-0.3,0-0.5-0.1l0,0l0,0c-0.1,0-0.2-0.1-0.3-0.2c-0.1-0.1-0.2-0.3-0.3-0.4l-0.1,0.1h0.1c0-0.6,0-1,0.4-1.3l-0.1-0.1l0.1,0.1
		c0.3-0.3,0.9-0.2,1.4-0.3l0,0l0.3-0.3l0,0l0-0.1c0-0.3,0-0.6,0-0.8c0-0.8,0.1-1.7,0.1-2.5c0-0.6,0-1.1-0.2-1.7l0,0l0,0
		c-0.2-0.2-0.4-0.3-0.6-0.2l-0.1,0c-0.2,0-0.3,0-0.4-0.1l0,0l0,0c-0.5-0.1-0.8-0.2-1-0.7l-0.1,0l0.1,0c0-0.2-0.1-0.4-0.1-0.5
		c0-0.2,0.1-0.3,0.2-0.5l0,0l0,0c0.2-0.2,0.4-0.2,0.6-0.2c0.2,0,0.4,0,0.6,0c0.3,0,0.6-0.1,0.8-0.3l0,0l0.2-2.5l-0.1,0l0.1,0.1
		c0.2-0.3,0.4-0.4,0.8-0.4c0.4,0,0.8,0.1,1.2,0.1h0l0,0c0.4-0.1,0.9-0.1,1.4-0.1c0.9,0,1.8,0.1,2.6,0.1l0-0.1l0,0.1
		c0.9,0,1.8,0.2,2.6,0.6l0.1,0l0.1,0L80.5,208.2l0.1-0.1c-0.8-0.4-1.8-0.5-2.7-0.6l0,0c-0.8,0-1.8-0.1-2.6-0.1c-0.5,0-1,0-1.5,0.1
		l0,0.1v-0.1c-0.3,0-0.8-0.1-1.2-0.1c-0.4,0-0.8,0.1-1,0.5l0,0l-0.2,2.5l0.1,0l-0.1-0.1c-0.2,0.2-0.3,0.2-0.6,0.2
		c-0.2,0-0.4,0-0.6,0c-0.3,0-0.6,0.1-0.8,0.3l0.1,0.1l-0.1-0.1c-0.3,0.2-0.3,0.5-0.3,0.7c0,0.2,0.1,0.4,0.1,0.6l0,0l0,0
		c0.2,0.6,0.7,0.8,1.2,0.9l0-0.1l-0.1,0.1c0.2,0.1,0.4,0.2,0.5,0.2l0.1,0c0.2,0,0.3,0,0.4,0.1l0.1-0.1l-0.1,0
		c0.1,0.6,0.1,1.1,0.1,1.7c0,0.8-0.1,1.7-0.1,2.5c0,0.3,0,0.6,0,0.9l0.1,0l-0.1-0.1l-0.3,0.3l0.1,0.1l0-0.1c-0.5,0.1-1.1,0-1.5,0.3
		l0,0l0,0c-0.5,0.4-0.5,0.9-0.5,1.5v0l0,0c0.1,0.1,0.2,0.3,0.3,0.4c0.1,0.1,0.3,0.3,0.5,0.3l0-0.1l-0.1,0.1c0.2,0.1,0.4,0.1,0.6,0.1
		l0.2,0c0.3,0,0.5,0,0.6,0.2l0.1-0.1l-0.1,0c0.1,0.2,0.1,0.4,0.1,0.6c0,0.3,0,0.6,0,0.9c0,0.4,0.1,0.9,0.5,1.2l0,0l0.1,0
		c2.4,0,4.8,0,7.3,0.2l0-0.1l-0.1,0.1c0.5,0.3,0.9,0.6,1.5,0.7l0,0l0,0c0.7-0.1,1.3-0.3,1.8-0.8l-0.1-0.1l0,0.1
		c0.7,0,1.4-0.1,2.2-0.1c2,0,4,0.1,6,0.1h0.1l0-0.1c0.1-0.3,0.2-0.7,0.2-1c0-0.4,0-0.9,0-1.2v0l0,0l0-0.2c0-0.3,0.1-0.4,0.2-0.4
		c0.1-0.1,0.3-0.1,0.5-0.1c0.2,0,0.4,0,0.6,0c0.2,0,0.5,0,0.7-0.1c0.2-0.1,0.4-0.3,0.5-0.7l-0.1,0l0.1,0c0-0.2,0.1-0.4,0.1-0.6
		c0-0.3-0.1-0.5-0.2-0.8l0,0l0,0c-0.6-0.5-1.3-0.5-2-0.5v0.1l0.1-0.1c-0.2-0.1-0.2-0.2-0.2-0.4c0-0.1,0-0.3,0.1-0.4l0,0l0,0
		c-0.1-0.4-0.1-0.8-0.1-1.2c0-0.8,0.1-1.7,0.1-2.5c0-0.2,0-0.3,0-0.5l-0.1,0l0.1,0.1l0.2-0.3l-0.1-0.1l0,0.1
		c0.6-0.2,1.3,0.1,1.9-0.6l0,0l0,0c0.1-0.3,0.2-0.5,0.2-0.8c0-0.1,0-0.3-0.1-0.4l-0.1,0.1l0.1,0c-0.1-0.4-0.4-0.6-0.7-0.7l-0.1,0.1
		l0.1-0.1c-0.2-0.1-0.4-0.1-0.6-0.1c-0.1,0-0.3,0-0.4,0c-0.3,0-0.4,0-0.5-0.2l-0.1,0.1l0.1,0c-0.1-0.8-0.1-1.6-0.1-2.4v0l0,0
		c-0.2-0.4-0.7-0.5-1.1-0.5c-0.3,0-0.7,0.1-1,0.1l-0.3,0l0,0l0,0c-0.3,0-0.5,0-0.8,0c-1.3,0-2.6-0.1-3.9-0.1c-1.2,0-2.3,0.1-3.4,0.6
		L80.5,208.2l0.1-0.1L80.5,208.2z"/>
	<path id="XMLID_70_" class="st2" d="M81.7,222.7c0.1,0.4,0.1,0.9-0.3,1.1c-0.2,0.3-0.6,0.3-0.9,0.2c-0.3,0-0.4-0.4-0.4-0.7
		c-0.1-0.6,0.5-0.8,0.8-1.2C81.2,222.2,81.5,222.5,81.7,222.7 M73.4,208.5c-0.5,0.3-1.1,1-0.9,1.6c0.2,4.3,0,8.1,0.2,12.1l0.4,0.4
		c2,0,4.2-0.2,6.1,0.2l0.1,0.3c-0.5,0.2-1.1,0.1-1.7,0.1l-5.2-0.1c-0.4-0.3-0.2-1-0.2-1.4c0-0.5,0.2-1.1-0.4-1.4
		c-0.7-0.2-1.4,0.1-1.9-0.5c0.4-1,2-0.2,2.3-1.3c0.2-1.9-0.2-3.8-0.1-5.6c-0.2-1-1.3-0.7-2.1-0.9c-0.1-0.1-0.2-0.3-0.2-0.5
		c0.6-0.6,1.8,0.1,2.3-0.8c0.2-0.8,0-1.6,0.2-2.3c0.3-0.3,0.7-0.3,1.1-0.2V208.5L73.4,208.5z M90.1,208.5c0.2,0.8-0.2,1.9,0.3,2.7
		c0.5,0.3,1.3,0.2,1.8,0.3c0.2,0.2,0.2,0.5,0.1,0.7c-0.6,0.6-1.7-0.2-2.1,0.8c0,2-0.1,3.9,0,6l0.3,0.3c0.7,0.1,1.5-0.2,1.9,0.3
		c0,0.3,0,0.6-0.3,0.7c-0.7,0.2-1.6-0.2-2,0.5c-0.2,0.8,0.1,1.6-0.2,2.4l-0.4,0.2l-7.2-0.1c-0.2-0.1,0-0.2,0-0.3l0.7-0.3l5.8,0
		c0.6-0.2,0.6-0.9,0.7-1.4c-0.1-2.9,0-5.4-0.1-8.1c0-1.4,0.2-2.7-0.1-4c-0.1-0.3-0.5-0.5-0.6-0.9C89.4,208.2,89.9,208.2,90.1,208.5
		 M88.6,222c-0.2,0.3-0.6,0.2-0.9,0.3H86c-1.3-0.1-2.7-0.2-3.8,0.1c-0.2,0-0.4-0.2-0.4-0.4c0.2-0.5,0.7-0.3,1.1-0.5
		c1.6,0.1,3.5,0,5,0C88.2,221.5,88.4,221.7,88.6,222 M89.1,209.5c-0.1,4.1,0,8.2-0.1,11.9c-0.1,0.2-0.3,0-0.5-0.2
		c-0.3-0.6-0.1-1.4-0.1-2c-0.2-3.3,0-6.7,0-10.1C88.7,208.9,89,209.3,89.1,209.5 M80.2,208.8l0.2,0.5c0.1,3.4,0.1,6.9,0.1,10.5
		l-0.1,1.3c-0.9,0-1.7-0.4-2.7-0.3c-1-0.1-2.1,0.1-2.9-0.2c-0.5-1.2-0.2-2.3-0.3-3.6c0.1-2.6,0.1-5.7,0.1-8.4c0-0.2,0.3-0.3,0.4-0.3
		C76.8,208.4,78.8,207.9,80.2,208.8 M87.8,208.6c0,4.1,0,8.1,0,12.1c-2,0.2-4.3-0.2-6.4,0.4c-0.4-0.4-0.1-1.1-0.2-1.6
		c-0.1-1.3,0-2.8-0.1-4.2c0.1-2-0.1-4.2,0.1-6.2c0.3-0.6,1-0.8,1.7-0.8l4.8,0.1L87.8,208.6L87.8,208.6L87.8,208.6z M80,221.8
		c0,0.3-0.2,0.5-0.5,0.6c-1.6-0.4-3.4-0.1-5.2-0.3l-0.1-0.1c0.1-0.3,0.4-0.6,0.7-0.6C76.8,221.4,78.4,221.4,80,221.8 M73.9,209
		c0.2,4.1-0.1,8.1,0.1,12.1c-0.1,0.2-0.3,0.5-0.5,0.5c-0.3-1.3-0.3-2.5-0.2-3.8c-0.1-2.6,0-5.5,0-8.1
		C73.3,209.4,73.6,209.1,73.9,209"/>
	<path id="XMLID_71_" d="M115,207.7c0.3-0.1,0.6,0.2,0.9,0.4c0.3,1-0.1,1.8,0.2,2.7c0.7,0.3,1.6,0.1,2,0.9c0.2,0.4,0.2,1-0.1,1.3
		c-0.5,0.7-1.7,0-2,0.8c-0.1,1.8-0.2,3.1,0,4.8c0.5,0.5,1.4,0.1,1.9,0.8c0.3,0.3,0.4,0.7,0.3,1.1c-0.4,0.7-1.3,0.7-2,0.8
		c-0.3,0.3,0,0.7-0.2,1.1c-0.3,0.7,0.4,1.5-0.4,1.9c-2.1,0.3-4.1-0.1-6.2,0.1l-2,0c-0.6,0.4-1.2,0.9-1.9,0.5l-1.3-0.6
		c-1.5,0-3-0.1-4.5,0c-1-0.1-2.4,0.4-3.1-0.6c0-0.8,0.2-1.6,0-2.4c-0.8-0.3-2,0.1-2.5-0.9c-0.1-0.3,0-0.7,0.1-1
		c0.6-0.8,1.8-0.1,2.4-0.8l0-2.2c0.2-1.1-0.1-1.9-0.1-3c-0.8-0.3-2.1,0.1-2.2-1.1c-0.1-0.6,0.3-1.1,0.8-1.2c0.5-0.2,1.2,0.1,1.5-0.4
		l0.2-2.4c0.6-1,2.1-0.4,3-0.6l4.6,0.1c0.7,0.1,1.4,0.8,2.1,0.4C109.1,207,112.2,208,115,207.7z"/>
	<path id="XMLID_72_" d="M115,207.7l0,0.1l0.1,0c0.2,0,0.5,0.2,0.7,0.3l0.1-0.1l-0.1,0c0.1,0.3,0.1,0.6,0.1,0.9c0,0.3,0,0.5,0,0.8
		c0,0.3,0,0.6,0.1,1l0,0.1l0.1,0c0.4,0.1,0.8,0.2,1.1,0.2c0.4,0.1,0.6,0.2,0.8,0.6c0.1,0.1,0.1,0.3,0.1,0.5c0,0.2-0.1,0.5-0.2,0.6
		l0,0l0,0c-0.2,0.3-0.6,0.3-1,0.3c-0.2,0-0.4,0-0.6,0.1c-0.2,0.1-0.4,0.2-0.5,0.4l0,0l0,0c-0.1,1-0.1,1.8-0.1,2.7
		c0,0.7,0,1.4,0.1,2.2l0,0.1l0,0c0.3,0.3,0.7,0.3,1,0.4c0.4,0,0.6,0.1,0.8,0.4l0,0l0,0c0.2,0.2,0.3,0.4,0.3,0.7l0,0.3l0.1,0
		l-0.1-0.1c-0.3,0.6-1.2,0.6-1.9,0.8l0,0l0,0c-0.2,0.1-0.2,0.3-0.2,0.5c0,0.2,0,0.3,0,0.5l0,0.2l0,0l0,0c-0.1,0.2-0.1,0.3-0.1,0.5
		c0,0.3,0.1,0.6,0.1,0.8c0,0.3-0.1,0.4-0.3,0.6l0.1,0.1l0-0.1c-0.6,0.1-1.2,0.1-1.8,0.1c-1.1,0-2.2-0.1-3.4-0.1c-0.4,0-0.7,0-1.1,0
		l0,0.1l0-0.1l-2.1,0.1l0,0c-0.4,0.3-0.9,0.6-1.3,0.6c-0.1,0-0.3,0-0.5-0.1l0,0l-1.3-0.6l0,0l0,0c-0.3,0-0.6,0-0.9,0
		c-0.9,0-1.7,0-2.6,0c-0.3,0-0.7,0-1,0l0,0.1l0-0.1l-0.2,0c-0.5,0-1,0.1-1.4,0.1c-0.6,0-1.1-0.1-1.4-0.6l-0.1,0.1h0.1
		c0-0.5,0.1-1,0.1-1.5c0-0.3,0-0.7-0.1-1l0-0.1l-0.1,0c-0.4-0.1-0.9-0.1-1.4-0.2c-0.5-0.1-0.8-0.2-1-0.6l-0.1,0.1l0.1,0l0-0.2
		c0-0.2,0.1-0.5,0.1-0.7l-0.1,0l0.1,0.1c0.2-0.3,0.6-0.4,1.1-0.4c0.4,0,1,0,1.3-0.4l0,0l0-2.3l-0.1,0l0.1,0c0-0.3,0.1-0.6,0.1-0.9
		c0-0.7-0.1-1.4-0.1-2.1v-0.1l-0.1,0c-0.4-0.2-1-0.1-1.4-0.2c-0.4-0.1-0.7-0.2-0.8-0.7l0,0l0,0l0-0.2c0-0.5,0.3-0.8,0.7-0.9l0,0l0,0
		c0.2-0.1,0.5,0,0.8-0.1c0.3,0,0.6-0.1,0.8-0.4l0,0l0.2-2.4l-0.1,0l0.1,0.1c0.3-0.4,0.7-0.5,1.2-0.5c0.4,0,0.9,0.1,1.3,0.1
		c0.1,0,0.3,0,0.4,0l0-0.1l0,0.1l4.6,0.1l0-0.1l0,0.1c0.5,0.1,1,0.5,1.6,0.5c0.2,0,0.4,0,0.6-0.2l-0.1-0.1l0.1,0.1
		c1.1-0.4,2.2-0.5,3.3-0.5c1.3,0,2.7,0.2,4.1,0.2c0.4,0,0.9,0,1.3-0.1l0,0l0,0L115,207.7l0-0.1c-0.4,0-0.9,0.1-1.3,0.1
		c-1.3,0-2.7-0.2-4.1-0.2c-1.2,0-2.3,0.1-3.4,0.6l0,0l0,0c-0.1,0.1-0.3,0.1-0.4,0.1c-0.5,0-1-0.4-1.6-0.5l0,0l-4.7-0.1l0,0l-0.3,0
		c-0.4,0-0.8-0.1-1.3-0.1c-0.6,0-1.1,0.1-1.5,0.7l0,0l-0.2,2.4l0.1,0l-0.1-0.1c-0.1,0.2-0.3,0.2-0.5,0.2c-0.3,0-0.6,0-0.9,0.1l0,0.1
		l0-0.1c-0.6,0.1-1,0.6-1,1.1l0,0.2l0.1,0l-0.1,0c0.1,0.7,0.5,0.9,1,1c0.5,0.1,1,0.1,1.3,0.2l0.1-0.1h-0.1c0,0.8,0.1,1.4,0.1,2.1
		c0,0.3,0,0.5-0.1,0.8l0,0l0,2.3l0.1,0l-0.1-0.1c-0.2,0.3-0.6,0.3-1.1,0.3c-0.5,0-1,0-1.3,0.5l0,0l0,0c-0.1,0.2-0.2,0.5-0.2,0.8
		l0,0.3l0,0l0,0c0.2,0.6,0.7,0.7,1.2,0.8c0.5,0.1,1,0,1.3,0.2l0-0.1l-0.1,0c0.1,0.3,0.1,0.6,0.1,0.9c0,0.5-0.1,1-0.1,1.5v0l0,0
		c0.4,0.6,1,0.7,1.6,0.7c0.5,0,1-0.1,1.4-0.1l0.2,0l0,0l0,0c0.3,0,0.7,0,1,0c0.9,0,1.7,0,2.6,0c0.3,0,0.6,0,0.9,0l0-0.1l-0.1,0.1
		l1.3,0.6l0.1-0.1l-0.1,0.1c0.2,0.1,0.4,0.2,0.6,0.2c0.6,0,1.1-0.4,1.5-0.7l-0.1-0.1l0,0.1l2,0l0,0c0.4,0,0.7,0,1.1,0
		c1.1,0,2.2,0.1,3.4,0.1c0.6,0,1.2,0,1.8-0.1l0,0l0,0c0.4-0.2,0.5-0.5,0.5-0.8c0-0.3-0.1-0.5-0.1-0.8l0.1-0.4l-0.1-0.1l0.1,0.1
		l0.1-0.3c0-0.2,0-0.3,0-0.5l0.1-0.2l-0.1-0.1l0,0.1c0.7-0.2,1.6-0.1,2.1-0.9l0,0l0,0l0-0.3c0-0.3-0.1-0.6-0.3-0.8l-0.1,0.1l0.1-0.1
		c-0.3-0.4-0.7-0.5-1-0.5c-0.4,0-0.7-0.1-0.9-0.3l-0.1,0.1l0.1,0c-0.1-0.8-0.1-1.5-0.1-2.2c0-0.8,0-1.7,0.1-2.7l-0.1,0l0.1,0.1
		c0.1-0.2,0.2-0.2,0.3-0.3c0.2-0.1,0.5-0.1,0.8-0.1c0.3,0,0.6-0.1,0.9-0.4l-0.1-0.1l0.1,0.1c0.2-0.2,0.2-0.5,0.2-0.8
		c0-0.2,0-0.4-0.1-0.6c-0.2-0.5-0.6-0.6-1-0.7c-0.4-0.1-0.8-0.1-1.1-0.2l-0.1,0.1l0.1,0c-0.1-0.3-0.1-0.6-0.1-0.9c0-0.3,0-0.5,0-0.8
		c0-0.3,0-0.6-0.1-1l0-0.1l0,0c-0.2-0.1-0.5-0.4-0.9-0.4l-0.1,0L115,207.7l0-0.1L115,207.7z"/>
	<path id="XMLID_82_" class="st2" d="M115.3,208.6c0,0.9-0.1,1.7,0.2,2.7c0.6,0.6,2.3-0.2,2,1.1c-0.6,0.4-1.3,0.1-1.9,0.2l-0.2,0.2
		c-0.3,2,0.2,4.1,0,6c0,0.2,0.2,0.6,0.5,0.6c0.6,0.1,1.4-0.3,1.6,0.4c-0.1,1.2-1.7,0.1-2.1,1.1c-0.2,0.9,0.3,1.7-0.1,2.6l-0.3,0.2
		c-2.6-0.1-5.2-0.1-7.6-0.1l0.1-0.3l0.5-0.3c2-0.2,4.3,0,6.4-0.2c0.3-0.1,0.6-0.3,0.5-0.6c0-3.9,0.1-7.9,0.1-12.3
		c-0.1-0.6-0.7-1-0.8-1.5C114.5,208.3,115.1,208.1,115.3,208.6 M98.4,208.4c-0.1,0.4-0.5,0.6-0.7,1c-0.3,0.8,0.1,1.6-0.1,2.5
		c0.1,3.5,0,6.8,0.1,10.3c0,0.3,0.2,0.6,0.4,0.6l5.5,0.1c0.3,0,0.7,0.2,0.9,0.4c-0.1,0.3-0.5,0.2-0.8,0.3c-2,0-4.2,0.1-6.2-0.2
		l-0.2-0.2c-0.1-0.9,0-1.9-0.4-2.7c-0.6-0.3-1.4,0-2-0.2c-0.3-0.2-0.2-0.6,0-0.8c0.7-0.4,1.9,0.2,2.3-0.7c0-2,0.1-3.9,0-5.9
		c-0.6-0.8-1.7-0.1-2.2-0.8c0.2-1.2,1.8-0.2,2.3-1.1l0.2-2.4C97.6,208.2,98,208.3,98.4,208.4 M106.5,223.2c0,0.4-0.1,0.9-0.5,0.9
		c-0.4,0-0.9,0-0.9-0.5c0.1-0.4,0.4-0.7,0.8-0.9C106.2,222.6,106.4,223,106.5,223.2 M99.2,209.1c0.2,3.5-0.2,6.7,0,10.2
		c-0.3,0.8,0.4,2-0.8,2.2c-0.2-3.5,0-7.3-0.2-11.1c-0.1-0.6,0.3-1.2,0.8-1.5L99.2,209.1L99.2,209.1L99.2,209.1z M114.3,209.7
		c0,3.9,0.1,8.1-0.2,11.8c-0.2,0.1-0.5-0.2-0.5-0.4c0-1.6-0.2-3.2-0.1-4.8c0.1-2.2-0.2-4.8,0.1-7.1
		C113.9,209.1,114.3,209.4,114.3,209.7 M105,221.8c0.2,0,0.5,0.3,0.3,0.5l-0.4,0.4c-1.8-0.7-4-0.2-5.9-0.5c0.2-0.3,0.3-0.5,0.6-0.7
		C101.3,221.6,103.2,221.3,105,221.8 M113.1,221.5c0.3,0.2,0.6,0.4,0.6,0.7l-0.3,0.1c-2.1,0.1-4.3-0.2-6.3,0.3
		c-0.3,0.1-0.7,0-0.7-0.3c0.2-0.5,0.8-0.6,1.3-0.7C109.5,221.4,111.3,221.5,113.1,221.5 M112.9,208.7c-0.1,4,0,8.1-0.1,12.1
		l-0.2,0.1c-2.2,0.2-4.3-0.4-6.3,0.4c-0.4-0.2-0.1-0.8-0.2-1.2v-10.6c0-0.4,0.2-0.7,0.6-0.8c0.6-0.4,1.3-0.2,2.1-0.3l4,0.1
		L112.9,208.7L112.9,208.7z M105.5,216.8c0.2-2.1,0.1-4.3,0.1-6.3c0-0.6,0.1-1.3-0.4-1.7c-1.5-0.7-3.5-0.3-5.2-0.4
		c-0.1,0.1-0.3-0.1-0.3,0.2c0,4-0.1,7.8-0.1,11.8l0.1,0.5c1.2,0.2,2.5,0.1,3.7,0.1c0.7,0.1,1.3,0.3,1.9,0.4c0.1-1.4,0.2-2.5,0.1-3.8
		L105.5,216.8L105.5,216.8z"/>
	<path id="XMLID_83_" d="M140.1,207.8c0.6,0.8,0.2,1.8,0.4,2.8c0.7,0.6,2.1,0,2.2,1.2c0.1,0.5-0.2,0.9-0.5,1.2
		c-0.5,0.5-1.3,0-1.7,0.5c-0.2,1.5,0,3.2,0,5c0.5,0.3,1.1,0.2,1.6,0.5c0.3,0.3,0.5,0.6,0.5,1c-0.1,0.4-0.3,0.7-0.7,0.9
		c-0.4,0.2-1.1,0-1.3,0.6c-0.2,0.8,0.1,1.7-0.1,2.6c-0.6,0.3-1.2,0.3-1.8,0.3l-6-0.1c-0.6,0.3-1.2,0.9-1.9,0.6
		c-1.3-0.8-3-0.6-4.5-0.6l-4.5-0.1c-0.8-0.7-0.2-1.9-0.5-2.8c-0.3-0.5-1.1-0.3-1.6-0.6c-0.5-0.2-0.6-0.7-0.5-1.1
		c0-0.5,0.5-0.8,1-0.9c0.4-0.2,1,0.2,1.2-0.4c0-1.6-0.1-3.1-0.1-4.6c-0.1-0.9-1.3-0.4-1.8-0.7c-0.5-0.3-0.5-0.9-0.4-1.4
		c0.4-0.9,1.4-0.7,2.2-0.9l0.1-0.3l0.1-2.7l0.3-0.2l7,0.2c0.8,0,1.5,0.4,2.3,0.6c1.5-1.1,3.7-0.6,5.5-0.9
		C137.6,207.8,138.8,207.6,140.1,207.8z"/>
	<path id="XMLID_84_" d="M140.1,207.8l-0.1,0.1c0.3,0.3,0.3,0.7,0.3,1.2c0,0.3,0,0.6,0,1c0,0.2,0,0.4,0,0.5l0,0.1l0,0
		c0.4,0.3,0.9,0.3,1.4,0.4c0.4,0.1,0.7,0.2,0.8,0.8l0,0l0,0l0,0.2c0,0.3-0.2,0.6-0.4,0.9l0.1,0.1l-0.1-0.1c-0.2,0.2-0.4,0.2-0.8,0.2
		c-0.3,0-0.7,0-0.9,0.3l0,0l0,0c-0.1,0.5-0.1,1.1-0.1,1.6c0,1.1,0.1,2.2,0.1,3.4v0.1l0.1,0c0.5,0.3,1.1,0.3,1.6,0.5l0.1-0.1L142,219
		c0.3,0.3,0.5,0.6,0.5,0.9h0.1l-0.1,0c0,0.4-0.3,0.6-0.6,0.8l0,0l0,0c-0.2,0.1-0.4,0.1-0.7,0.1c-0.3,0-0.6,0.2-0.7,0.5l0,0l0,0
		c-0.1,0.3-0.1,0.6-0.1,0.8c0,0.4,0,0.7,0,1.1c0,0.2,0,0.4-0.1,0.7l0.1,0l-0.1-0.1c-0.5,0.3-1.2,0.3-1.8,0.3l-6-0.1l0,0
		c-0.5,0.3-0.9,0.6-1.4,0.6c-0.1,0-0.3,0-0.4-0.1l-0.1,0.1l0.1-0.1c-0.9-0.6-2-0.6-3.1-0.6c-0.3,0-0.6,0-0.9,0c-0.2,0-0.4,0-0.5,0
		l-4.5-0.1l0,0.1l0.1-0.1c-0.3-0.3-0.4-0.6-0.4-1.1c0-0.3,0.1-0.7,0.1-1.1c0-0.2,0-0.4-0.1-0.6l0,0l0,0c-0.2-0.3-0.5-0.4-0.8-0.5
		c-0.3,0-0.6-0.1-0.9-0.2l0,0l0,0c-0.3-0.1-0.4-0.5-0.4-0.8l0-0.2l0,0v0c0-0.4,0.4-0.6,0.9-0.7l0,0l0,0c0.1,0,0.2-0.1,0.3-0.1l0.2,0
		c0.1,0,0.3,0,0.4-0.1c0.1-0.1,0.2-0.2,0.3-0.4l0,0v0c0-1.3-0.1-2.5-0.1-3.7c0-0.3,0-0.6,0-0.9l0,0l0,0c0-0.3-0.2-0.4-0.3-0.6
		c-0.3-0.1-0.6-0.1-0.9-0.1c-0.3,0-0.6,0-0.7-0.1l0,0l0,0c-0.3-0.2-0.4-0.5-0.4-0.8c0-0.1,0-0.3,0-0.4l-0.1,0l0.1,0.1
		c0.2-0.4,0.5-0.5,0.9-0.6c0.4-0.1,0.8-0.1,1.3-0.2l0.1,0l0.1-0.3l0,0l0.1-2.6l0.2-0.1l6.9,0.2h0c0.8,0,1.5,0.3,2.2,0.6l0.1,0l0.1,0
		c1.4-1.1,3.6-0.5,5.4-0.8l0-0.1l0,0.1c1.3,0.3,2.5,0.1,3.7,0.3L140.1,207.8l-0.1,0.1L140.1,207.8l0-0.1c-1.3-0.3-2.5-0.1-3.7-0.3
		l0,0l0,0c-1.7,0.3-4-0.3-5.5,0.9l0.1,0.1l0-0.1c-0.8-0.2-1.5-0.6-2.3-0.6v0.1l0-0.1l-7-0.2l-0.3,0.2l-0.1,0l-0.1,2.7l-0.1,0.2
		l0.1,0.1l0-0.1c-0.4,0.1-0.8,0.1-1.2,0.2c-0.4,0.1-0.8,0.3-1.1,0.8l0,0l0,0c0,0.1,0,0.3,0,0.4c0,0.4,0.1,0.8,0.5,1.1l0.1-0.1
		l-0.1,0.1c0.3,0.2,0.8,0.2,1.1,0.2c0.2,0,0.3,0,0.4,0.1c0.1,0.1,0.2,0.1,0.2,0.3l0.1,0l-0.1,0c0,0.3,0,0.6,0,0.9
		c0,1.2,0.1,2.5,0.1,3.7h0.1l-0.1,0l-0.1,0.2l-0.3,0l-0.2,0c-0.1,0-0.3,0-0.5,0.1l0.1,0.1l0-0.1c-0.5,0.1-1,0.4-1.1,1l0.1,0l-0.1,0
		l0,0.2c0,0.4,0.1,0.9,0.6,1.1l0.1-0.1l-0.1,0.1c0.3,0.1,0.6,0.1,0.9,0.2c0.3,0,0.5,0.1,0.6,0.3l0.1-0.1l-0.1,0
		c0,0.2,0.1,0.3,0.1,0.5c0,0.3-0.1,0.7-0.1,1.1c0,0.5,0.1,0.9,0.5,1.3l0,0l4.5,0.1l0-0.1l0,0.1c0.2,0,0.4,0,0.6,0c0.3,0,0.6,0,0.9,0
		c1.1,0,2.1,0.1,2.9,0.6l0,0l0,0c0.2,0.1,0.3,0.1,0.5,0.1c0.6,0,1.1-0.4,1.6-0.7l-0.1-0.1l0,0.1l6,0.1c0.6,0,1.3,0,1.9-0.3l0.1,0
		l0-0.1c0-0.2,0.1-0.5,0.1-0.7c0-0.4,0-0.8,0-1.1c0-0.3,0-0.5,0.1-0.8l-0.1,0l0.1,0c0.1-0.2,0.2-0.3,0.5-0.3c0.2,0,0.5,0,0.8-0.2
		l-0.1-0.1l0,0.1c0.4-0.2,0.8-0.5,0.8-1l0,0v0c0-0.5-0.3-0.8-0.5-1.1l0,0l0,0c-0.6-0.3-1.2-0.2-1.6-0.5l-0.1,0.1h0.1
		c0-1.2-0.1-2.3-0.1-3.4c0-0.5,0-1.1,0.1-1.6l-0.1,0l0.1,0.1c0.2-0.2,0.4-0.2,0.7-0.2c0.3,0,0.7,0,1-0.3l0,0l0,0
		c0.2-0.3,0.5-0.6,0.5-1.1l0-0.2l-0.1,0l0.1,0c-0.1-0.7-0.6-0.9-1-1c-0.5-0.1-1-0.1-1.2-0.3l-0.1,0.1l0.1,0c0-0.2,0-0.3,0-0.5
		c0-0.3,0-0.6,0-1c0-0.5-0.1-0.9-0.4-1.3l0,0l0,0L140.1,207.8z"/>
	<path id="XMLID_93_" class="st2" d="M130.1,221.9c0.2,0.1,0.2,0.4,0,0.4c-0.6,0.7-1.4-0.2-2.2,0c-1.3-0.2-2.8,0-4.1-0.2
		c0.4-1.1,1.9-0.4,2.8-0.7C127.8,221.7,129.1,221.3,130.1,221.9 M137.6,221.7c0.3,0.2,0.5,0.4,0.6,0.7c-2.1,0.3-4.1-0.2-6.1,0.3
		c-0.3-0.1-0.4-0.4-0.3-0.6c0.4-0.5,1.1-0.4,1.7-0.5L137.6,221.7z M131.6,223c0.1,0.5,0.1,1.1-0.6,1.1c-0.4,0.1-0.8-0.2-0.9-0.5
		c-0.1-0.5,0.2-1,0.6-1.2C131.2,222.4,131.4,222.8,131.6,223 M123,208.5c-0.1,0.4-0.6,0.7-0.8,1.1c0.1,4.2,0,8.7,0.2,13.1l0.4,0.2
		c2.2,0,4.6-0.5,6.6,0.5v0.1c-2.5-0.1-4.9,0.2-7.3-0.1l-0.2-0.3c-0.1-0.9,0.1-1.8-0.3-2.6c-0.6-0.5-2.2,0.2-1.8-1
		c0.6-0.5,1.6,0.2,1.9-0.6c0-2.1,0.1-4-0.1-6c-0.5-0.6-1.3-0.2-1.9-0.4c-0.2-0.2-0.4-0.5-0.2-0.8c0.7-0.6,2.6,0.2,2.2-1.4
		c0.2-0.7-0.3-1.9,0.6-2C122.6,208.3,122.9,208.3,123,208.5 M139.7,208.6c0.2,1-0.2,1.9,0.4,2.8c0.6,0.2,1.6-0.2,1.9,0.4
		c-0.1,1.2-1.7,0.3-2.1,1.2c0.2,1.9-0.2,3.5,0.1,5.6c-0.2,0.2-0.3,0.4-0.1,0.6c0.6,0.5,1.3-0.3,1.8,0.2c0.4,0.1,0.2,0.4,0.2,0.6
		c-0.5,0.7-1.6-0.1-1.9,0.8l-0.1,2.6l-0.4,0.2l-6.8,0l0-0.2l0.8-0.3h5.2c0.3,0,0.6-0.3,0.6-0.6c-0.1-4-0.1-8.2-0.1-12.6l-0.6-1.2
		C138.8,208.2,139.5,208.2,139.7,208.6 M123.8,210.2v11c-0.1,0.3-0.5,0.5-0.7,0.7l-0.2-0.2c0-1.2,0-2.5,0-3.6v-0.9
		c-0.1-2.4-0.1-5.1,0-7.5c0.2-0.2,0.4-0.6,0.7-0.7C123.8,209.4,123.7,209.7,123.8,210.2 M138.7,209.6c-0.1,2.9,0,5.6,0.1,8.3
		c-0.1,1.3-0.1,2.4-0.1,3.6l-0.2,0.2c-0.9-0.4-0.6-1.3-0.6-2.1c0.1-1.1-0.1-2.3,0.1-3.4l-0.2-0.4l0.1-6.7
		C138.1,208.7,138.5,209.4,138.7,209.6 M137.4,209.8c0-0.5,0.1-1-0.2-1.4l-1.8-0.1c-1.3,0.2-2.8-0.2-3.9,0.5
		c-0.5,0.6-0.3,1.3-0.4,2.1c0.1,0.4,0.2,0.9,0.4,1.3l-0.2,0.6l-0.8-0.2l-0.2-0.4c0.1-0.3,0.2-0.6,0.2-1c0-0.9,0.3-2.2-0.9-2.6
		c-1.7-0.1-3.2-0.2-5-0.2l-0.3,0.2c0,3.9,0,7.3,0,11.2c0,0.5-0.2,1.1,0.4,1.3c1.5-0.2,2.8,0,4.2-0.1c0.5,0,0.9,0.5,1.5,0.4
		c0.2-1.6,0.2-3.5,0.1-5.2c-0.1-0.1,0-0.5-0.2-0.6v-0.3l0.9,0.1l0.1,0.3l-0.1,0.1l-0.1,5.3c0,0.2,0,0.6,0.4,0.5
		c1.6-0.9,3.5-0.3,5.4-0.5l0.4-0.2c0.2-0.9,0.1-4,0.1-4C137.4,214.5,137.4,212.2,137.4,209.8"/>
	<path id="XMLID_94_" class="st2" d="M131.2,214.7c-0.1,0.3-0.6,0.3-0.8,0.2l-0.3-0.1c0.2-0.6,0-1.2,0.5-1.6
		C131,213.4,131,214.1,131.2,214.7"/>
	<path id="XMLID_103_" d="M105,216.6c-0.6-0.5-0.8-1.3-1.3-1.9c0.2-0.3,0.6-0.4,0.8-0.6c0.4-0.4,0.8-1,0.6-1.6
		c-0.1-0.5-0.3-1-0.8-1.3c-1.1-0.4-2.4-0.2-3.5-0.1c-0.2,0.1-0.3,0.3-0.1,0.4c0.4,0.2,0.6,0.5,0.6,0.8c-0.1,1.4-0.1,2.8-0.2,4.1
		l-0.6,0.6c0.6,0.5,1.3,0.1,2.2,0.3c0.2-0.4-0.4-0.6-0.5-1c0.1-0.4,0-1,0.3-1.3c0.8,0.7,1,1.7,1.9,2.3l1.2,0.1l0-0.7
		C105.4,216.9,105.1,216.7,105,216.6 M103.4,214.1c-0.3,0-0.9,0.3-1-0.2c0-0.7-0.3-1.5,0-2.2c0.5-0.4,1.2-0.2,1.5,0.3
		c0.2,0.4,0.2,0.8,0.2,1.2C103.9,213.6,103.8,214,103.4,214.1 M131.5,215.5c0.2,0.3,0.3,0.6,0.3,1l-0.4,0.6l0.3,0.2
		c0.6,0,1.4,0.2,2-0.1c-0.2-0.3-0.5-0.4-0.7-0.6c-0.7-1.9-1.2-3.9-1.8-5.8l-0.6,0.3c-0.4,1.7-1.1,3.3-1.5,5.1
		c-0.1,0.3-0.4,0.4-0.7,0.6c-0.4,0.1-0.5-0.3-0.7-0.5c0-1.5,0.2-2.8,0.1-4.5c-0.1-0.3,0.3-0.6,0.5-0.3c0.4,0.2,0.4,0.7,0.5,1.1
		c0.1,0.2,0.4,0.2,0.4-0.1l0.3-1.6c-0.2-0.5-0.7,0.1-1.1,0c-0.8-0.1-1.8,0.2-2.6-0.3c-0.6,0.2-0.4,1.1-0.6,1.6l0.1,0.3
		c0.5-0.3,0.8-1.1,1.5-0.9l0.1,1.5l-0.2,3.3c-0.2,0.3-0.7,0.3-0.7,0.7c0.9,0.3,1.9,0,2.8,0.1c0.5,0,1.1,0.2,1.5,0l0-0.4
		c-0.3-0.2-0.7-0.4-0.6-0.8c0.2-0.3,0.2-0.8,0.7-0.6l0.2,0.1l0.7,0.1v0C131.3,215.6,131.3,215.5,131.5,215.5 M130.4,214.8l-0.3-0.1
		c0.2-0.6,0-1.2,0.5-1.6c0.5,0.3,0.4,1,0.6,1.6C131.1,214.9,130.6,214.9,130.4,214.8 M136.1,211.3c0,0.4,0.3,1,0,1.3
		c-0.4-0.3-0.4-0.6-1-0.8c-0.3,0-0.6,0.1-0.7,0.4c-0.1,1.1,1,1.1,1.6,1.8c0.6,0.6,0.8,1.5,0.6,2.2c-0.2,0.6-0.5,0.9-1.1,0.9
		c-0.5,0.1-0.9-0.3-1.3-0.1c-0.1,0-0.3,0.1-0.4-0.1l0.1-2l0.3-0.2c0.3,0.7,0.1,1.5,1,1.5c0.3,0,0.6-0.1,0.6-0.5
		c0.1-1.8-2.3-1.4-2.2-3.2c0.1-0.4,0.1-0.8,0.3-1.1c0.4-0.7,1.3-0.3,2-0.7C136.1,210.8,136.1,211.2,136.1,211.3 M110.5,211.2
		c-0.5,0.3-1.1,0.7-0.9,1.4c-0.2,1.2-0.1,2.5,0,3.8l0.8,0.7l-0.1,0.1c-0.9,0-1.7,0.2-2.6,0c-0.4-0.4,0.5-0.6,0.6-0.9
		c0.2-1.4,0.3-2.9,0.2-4.5c-0.2-0.5-0.9-0.3-0.7-0.8c0.8-0.1,1.8-0.1,2.6,0L110.5,211.2z M85.7,212.2c-0.5,0.6-0.6-0.6-1.1-0.6
		c-0.3,0-0.8-0.1-1,0.1c-0.1,0.7-0.2,1.3,0,1.9c0.2,0.2,0.6,0.1,0.9,0.1c0.3-0.2,0.5-0.8,0.9-0.7c0.3,0.3-0.1,0.7,0,0.9
		c-0.1,0.4,0.3,0.9-0.2,1c-0.3-0.2-0.5-0.7-0.9-0.7l-0.7,0.1c-0.3,0.9-0.2,1.7,0,2.6c0.4,0.4,0.9,0,1.4,0c0.7-0.1,0.5-1.1,1.1-1
		c0.2,0.4,0.2,0.9,0.1,1.3l-0.3,0.2l-3.6,0c-0.2-0.1-0.5-0.1-0.4-0.3c1.2-0.7,0.5-2.1,0.7-3.2c-0.2-0.8,0.5-2.1-0.6-2.6
		c-0.1-0.3,0.3-0.2,0.4-0.3c0.9,0,2.1,0.3,2.9-0.4C85.7,210.9,85.7,211.7,85.7,212.2 M80.1,211.4c-1,0.8-1.1,2.3-1.5,3.4
		c-0.4,0.7-0.2,1.6-0.9,2.2c-0.3,0.1-0.5-0.2-0.5-0.4c-0.4-1.6-0.8-3.2-1.4-4.7c-0.1-0.5-1.1-0.6-0.5-0.9c0.8-0.1,1.3,0.1,2,0
		c0.2,0.5-0.6,0.7-0.4,1.3c0.5,0.7,0.3,1.7,0.9,2.3l0.3-0.3c0-1.2,1.4-2.2,0.2-3.3c0.3-0.4,1-0.1,1.5-0.3
		C80,211,80.4,211.1,80.1,211.4"/>
</g>
</svg>
