<?xml version="1.0" encoding="UTF-8" standalone="no"?>
<!-- Generator: Adobe Illustrator 16.0.4, SVG Export Plug-In . SVG Version: 6.00 Build 0)  -->

<svg
   xmlns:dc="http://purl.org/dc/elements/1.1/"
   xmlns:cc="http://creativecommons.org/ns#"
   xmlns:rdf="http://www.w3.org/1999/02/22-rdf-syntax-ns#"
   xmlns:svg="http://www.w3.org/2000/svg"
   xmlns="http://www.w3.org/2000/svg"
   xmlns:xlink="http://www.w3.org/1999/xlink"
   xmlns:sodipodi="http://sodipodi.sourceforge.net/DTD/sodipodi-0.dtd"
   xmlns:inkscape="http://www.inkscape.org/namespaces/inkscape"
   version="1.1"
   x="0px"
   y="0px"
   width="800"
   height="600"
   viewBox="0 0 800 600"
   enable-background="new 0 0 413 149"
   xml:space="preserve"
   id="svg24"
   sodipodi:docname="icfo.svg"
   inkscape:version="0.92.2 (5c3e80d, 2017-08-06)"><metadata
     id="metadata30"><rdf:RDF><cc:Work
         rdf:about=""><dc:format>image/svg+xml</dc:format><dc:type
           rdf:resource="http://purl.org/dc/dcmitype/StillImage" /><dc:title></dc:title></cc:Work></rdf:RDF></metadata><defs
     id="defs28" /><sodipodi:namedview
     pagecolor="#ffffff"
     bordercolor="#666666"
     borderopacity="1"
     objecttolerance="10"
     gridtolerance="10"
     guidetolerance="10"
     inkscape:pageopacity="0"
     inkscape:pageshadow="2"
     inkscape:window-width="1920"
     inkscape:window-height="1017"
     id="namedview26"
     showgrid="false"
     inkscape:zoom="0.91767554"
     inkscape:cx="206.5"
     inkscape:cy="248.85356"
     inkscape:window-x="1432"
     inkscape:window-y="-8"
     inkscape:window-maximized="1"
     inkscape:current-layer="svg24" /><g
     id="g4542"
     transform="matrix(1.6531539,0,0,1.6531539,-58.69776,-59.903867)"><g
       transform="translate(78.459103,132.80475)"
       id="Layer_1"><rect
         style="fill:#273b82"
         id="rect2"
         height="105.893"
         width="8.2930002"
         y="17.264999"
         x="19.750999" /><g
         id="g10"><defs
           id="defs5"><rect
             height="595.28003"
             width="841.89001"
             y="-227.28"
             x="-211"
             id="SVGID_1_" /></defs><clipPath
           id="SVGID_2_"><use
             height="100%"
             width="100%"
             y="0"
             x="0"
             style="overflow:visible"
             id="use7"
             overflow="visible"
             xlink:href="#SVGID_1_" /></clipPath></g></g><g
       transform="translate(78.459103,132.80475)"
       id="Isolation_Mode"><path
         style="fill:#273b82"
         inkscape:connector-curvature="0"
         id="path13"
         d="m 45.817,70.878 v -1.185 c 0.002,-31.25 21.478,-53.761 49.173,-53.761 21.919,0 39.543,11.404 42.8,33.175 h -8.293 c -3.259,-17.032 -14.81,-26.51 -34.36,-26.51 -23.696,0 -40.877,18.957 -40.879,46.948 v 1.186 c -0.001,28.583 15.698,46.651 40.874,46.651 19.106,0 32.731,-10.069 36.138,-28.287 h 7.702 c -3.851,22.808 -21.18,35.248 -43.988,35.248 -30.213,0 -49.168,-21.475 -49.167,-53.465" /><polygon
         style="fill:#273b82"
         id="polygon15"
         points="188.588,87.614 188.587,123.158 154.968,123.158 154.973,17.265 228.282,17.265 228.281,43.182 188.591,43.182 188.59,62.881 220.579,62.881 220.576,87.614 " /><path
         style="fill:#273b82"
         inkscape:connector-curvature="0"
         id="path17"
         d="m 234.502,70.877 v -1.184 c 0.002,-32.731 24.884,-54.058 56.577,-54.058 32.583,0 56.87,19.698 56.868,53.169 v 1.185 c -10e-4,33.027 -22.662,55.095 -57.466,55.095 -34.656,10e-4 -55.98,-22.067 -55.979,-54.207 m 78.494,-0.147 v -1.186 c 0.001,-17.919 -8.589,-27.695 -21.918,-27.695 -13.032,0 -21.476,9.627 -21.477,27.695 v 1.186 c -0.002,18.068 8.441,27.991 21.771,27.991 13.181,10e-4 21.623,-10.367 21.624,-27.991" /><path
         style="clip-rule:evenodd;fill:#ec7223;fill-rule:evenodd"
         inkscape:connector-curvature="0"
         id="path19"
         d="m 363.127,17.747 h 36.965 l -0.002,38.722 c 0,0 1.985,18.448 -18.585,24.512 l -9.021,-10.315 c 0,0 9.449,-3.225 10.986,-14.213 h -20.346 z" /><path
         style="clip-rule:evenodd;fill:#ffffff;fill-rule:evenodd"
         inkscape:connector-curvature="0"
         id="path21"
         d="m 378.495,35.613 h 3.197 c 1.129,0 1.905,-0.174 2.331,-0.521 0.423,-0.354 0.638,-0.961 0.638,-1.832 0,-0.894 -0.215,-1.518 -0.637,-1.865 -0.427,-0.35 -1.267,-0.524 -2.506,-0.524 h -3.022 z m -6.961,14.409 0.001,-25.268 h 10.503 c 3.294,0 5.642,0.566 7.048,1.697 1.408,1.131 2.111,2.991 2.111,5.578 0,1.543 -0.29,2.825 -0.864,3.84 -0.582,1.021 -1.471,1.827 -2.673,2.42 1.222,0.298 2.115,0.883 2.673,1.757 0.555,0.877 0.854,2.158 0.89,3.851 l 0.12,3.518 c 0,0.025 0.005,0.053 0.017,0.086 0.032,1.006 0.242,1.533 0.626,1.578 l -10e-4,0.943 h -7.114 c -0.13,-0.607 -0.229,-1.134 -0.295,-1.586 -0.063,-0.453 -0.097,-0.803 -0.097,-1.057 v -2.521 c 0,-1.303 -0.224,-2.221 -0.67,-2.753 -0.447,-0.53 -1.223,-0.798 -2.32,-0.798 h -2.993 v 8.715 z" /></g></g></svg>